<?xml version="1.0" standalone="no"?>
<!DOCTYPE svg PUBLIC "-//W3C//DTD SVG 20010904//EN"
 "http://www.w3.org/TR/2001/REC-SVG-20010904/DTD/svg10.dtd">
<svg version="1.0" xmlns="http://www.w3.org/2000/svg"
 width="800.000000pt" height="800.000000pt" viewBox="0 0 800.000000 800.000000"
 preserveAspectRatio="xMidYMid meet">
<metadata>
Created by potrace 1.11, written by Peter Selinger 2001-2013
</metadata>
<g transform="translate(0.000000,800.000000) scale(0.100000,-0.100000)"
fill="#000000" stroke="none">
<path d="M5245 7723 c1 -10 10 -34 20 -53 15 -30 16 -33 2 -21 -15 12 -21 9
-47 -19 -17 -18 -30 -26 -30 -19 -1 8 -7 1 -14 -16 -12 -28 -13 -29 -24 -10
-10 18 -11 17 -12 -10 0 -17 -5 -36 -12 -43 -9 -9 -16 -3 -30 26 l-17 37 -1
-54 c0 -53 -12 -61 -23 -16 -4 18 -5 18 -6 -2 0 -13 -6 -23 -12 -23 -6 0 -22
-9 -36 -20 -34 -27 -43 -25 -44 8 -1 26 -1 25 -11 -7 -7 -24 -12 -31 -20 -23
-12 12 -19 72 -9 72 3 0 6 25 6 55 1 62 -5 61 -25 -5 -7 -25 -26 -77 -42 -116
-27 -64 -32 -70 -54 -66 -13 2 -24 9 -24 16 0 6 -5 4 -10 -4 -8 -12 -11 -13
-19 -1 -5 7 -6 22 -4 32 5 17 2 18 -18 10 -25 -9 -69 5 -69 21 0 4 -4 8 -10 8
-20 0 -9 -19 19 -31 17 -8 27 -18 24 -26 -7 -17 -33 -17 -34 0 -1 6 -4 -1 -8
-18 -3 -17 -14 -31 -24 -33 -11 -2 -15 1 -11 11 3 8 0 18 -7 23 -8 4 -10 3 -5
-5 11 -17 -35 -104 -48 -91 -8 8 -6 14 4 20 13 8 13 12 -2 27 -17 16 -18 16
-18 0 0 -23 -9 -21 -36 8 -13 14 -28 25 -34 25 -6 0 5 -17 25 -37 24 -24 33
-42 29 -52 -4 -9 -9 -28 -12 -43 -2 -16 -8 -28 -13 -28 -12 0 -29 35 -29 62
-1 22 -1 22 -14 5 -8 -10 -17 -41 -21 -68 -5 -37 -11 -49 -21 -45 -8 3 -14 1
-14 -5 0 -6 -7 -3 -16 6 -9 8 -13 22 -10 30 3 8 1 17 -3 20 -5 3 -7 15 -4 28
5 22 5 22 -10 2 -9 -11 -11 -21 -6 -23 13 -5 11 -52 -3 -52 -6 0 -20 8 -31 18
-20 17 -20 16 -13 -13 4 -16 13 -34 19 -38 8 -6 8 -10 2 -13 -6 -2 -9 -21 -7
-42 l4 -37 -26 24 c-28 26 -35 18 -11 -13 18 -23 20 -62 4 -71 -6 -4 -22 3
-35 16 l-25 24 26 -47 c28 -50 26 -81 -2 -52 -12 11 -18 12 -23 3 -4 -6 -13
-8 -19 -5 -14 9 -14 -7 0 -21 7 -7 3 -10 -16 -10 -15 0 -31 -7 -36 -14 -8 -11
-12 -10 -25 6 -15 19 -15 17 -12 -29 2 -37 -1 -50 -12 -53 -13 -4 -13 -3 0 6
13 10 13 12 0 21 -22 14 -30 12 -30 -8 0 -26 -11 -34 -27 -21 -9 9 -13 8 -13
0 0 -6 -7 -11 -15 -11 -9 0 -12 -6 -9 -15 4 -9 0 -15 -9 -15 -8 0 -24 -15 -35
-32 -18 -27 -22 -30 -28 -15 -8 21 -24 22 -24 2 0 -8 5 -15 11 -15 8 0 9 -13
4 -42 -4 -24 -8 -59 -9 -78 0 -19 -5 -38 -10 -42 -6 -4 -5 -17 2 -33 8 -16 8
-24 2 -20 -7 4 -9 -2 -4 -18 5 -22 3 -25 -15 -20 -17 4 -21 1 -21 -16 0 -12
-4 -20 -9 -16 -5 3 -12 1 -16 -4 -3 -5 2 -14 11 -19 19 -11 13 -42 -8 -41 -10
0 -10 2 0 6 18 7 15 21 -8 33 -19 10 -20 9 -14 -15 4 -15 1 -31 -6 -40 -9 -10
-9 -15 -1 -15 6 0 11 -7 11 -15 0 -8 -4 -15 -9 -15 -5 0 -11 7 -15 15 -3 8
-11 15 -17 15 -8 0 -8 -4 1 -15 10 -12 10 -15 -4 -15 -9 0 -16 -4 -16 -10 0
-5 7 -7 16 -3 12 4 15 2 12 -8 -3 -8 -13 -13 -22 -13 -9 1 -16 -4 -16 -12 0
-13 -53 -74 -65 -74 -9 0 -97 -70 -88 -71 4 -1 15 -2 23 -3 8 0 14 -7 12 -15
-1 -7 3 -19 9 -27 8 -9 8 -14 1 -14 -6 0 -14 5 -17 10 -9 15 -25 12 -25 -5 0
-8 -11 -17 -25 -21 -13 -3 -29 -12 -35 -19 -9 -11 -4 -11 27 0 57 20 85 1 42
-29 -18 -12 -19 -17 -8 -29 12 -13 16 -13 33 1 18 16 18 16 5 -8 -7 -14 -13
-29 -14 -33 0 -5 -9 -16 -21 -25 -12 -9 -24 -26 -28 -37 -5 -14 -9 -16 -15 -7
-6 9 -15 3 -35 -22 -15 -20 -22 -36 -17 -36 6 0 11 4 11 8 0 4 17 14 38 22 57
23 59 23 33 0 -24 -21 -23 -42 2 -22 11 9 13 5 13 -23 -1 -19 -4 -35 -8 -35
-9 0 -43 -73 -52 -109 -3 -14 -1 -30 4 -36 5 -6 5 -27 0 -50 -10 -41 -12 -109
-3 -87 9 23 25 12 19 -13 -4 -14 -2 -25 4 -25 13 0 13 -120 1 -153 -10 -26
-13 -243 -5 -357 2 -36 4 -89 4 -117 -1 -29 4 -61 9 -71 5 -10 6 -44 2 -80 -7
-57 -6 -62 11 -56 20 6 24 -6 7 -23 -16 -16 -1 -63 19 -56 12 5 14 1 9 -25 -4
-18 -2 -32 3 -32 5 0 12 -17 16 -37 7 -37 31 -66 46 -57 5 3 8 0 8 -6 0 -6 5
-8 11 -4 9 5 10 -1 5 -19 -4 -19 -3 -25 6 -22 9 4 13 -6 14 -31 0 -20 5 -39
11 -42 5 -4 13 -14 16 -22 3 -9 6 -5 6 10 1 15 -4 31 -9 36 -7 7 -7 19 -1 35
l10 24 0 -23 c1 -21 22 -52 35 -52 3 0 6 17 5 38 -1 33 -2 34 -9 12 -7 -22 -8
-23 -9 -4 -1 12 7 28 18 35 21 16 40 76 20 63 -9 -5 -10 -2 -4 12 17 40 25
140 22 270 -2 73 -6 137 -10 141 -10 10 -8 51 3 55 5 2 17 35 26 73 9 39 20
77 24 85 4 9 11 30 15 48 3 18 10 32 14 32 5 0 6 10 4 23 -3 13 4 50 15 82 11
33 25 85 32 115 7 30 16 63 21 72 5 10 9 31 9 46 0 16 11 42 25 58 14 16 25
33 25 38 0 6 -7 1 -16 -10 -14 -18 -15 -18 -10 -1 20 63 12 62 -19 -1 -20 -40
-40 -70 -45 -67 -5 3 0 20 11 38 10 18 27 49 37 69 9 21 23 38 30 38 6 0 12 5
12 10 0 6 -5 10 -11 10 -7 0 -9 11 -5 33 4 17 6 45 6 61 0 15 5 35 11 42 9 11
8 14 -5 14 -9 0 -16 5 -16 10 0 6 7 10 15 10 16 0 38 34 28 44 -3 3 -12 1 -20
-5 -19 -16 -16 -3 4 21 10 11 23 20 30 20 7 0 13 11 13 24 0 14 6 31 13 38 6
7 13 20 15 28 2 8 9 18 15 22 8 5 8 11 2 16 -12 8 -13 37 -2 48 4 4 7 16 7 26
0 27 42 72 52 56 5 -9 8 -7 8 7 0 11 14 29 30 40 16 11 30 24 30 28 0 5 -14
-2 -32 -14 l-31 -23 24 35 c13 19 29 37 34 41 6 5 5 8 -3 8 -7 0 -10 5 -6 11
3 6 17 9 30 6 14 -2 27 0 30 4 9 15 56 11 49 -3 -4 -7 -1 -6 7 3 7 9 24 19 37
24 19 6 21 9 10 17 -11 7 -9 9 6 6 11 -3 28 3 39 13 18 17 17 18 -13 17 -17
-1 -34 2 -38 5 -6 7 33 11 75 7 12 -1 22 4 22 10 0 6 5 8 12 4 7 -5 5 -11 -7
-21 -14 -10 -15 -13 -4 -13 8 0 22 9 32 20 13 16 29 20 74 20 40 0 53 3 43 10
-24 15 -6 21 27 8 25 -10 35 -9 49 2 9 8 41 16 73 16 31 1 49 -1 41 -4 -16 -7
-25 -32 -12 -32 4 0 18 7 30 16 14 10 22 11 22 4 0 -7 -9 -14 -20 -17 -11 -3
-20 -9 -20 -14 0 -13 12 -11 34 6 11 8 28 13 38 9 11 -3 20 1 24 10 3 9 11 16
16 16 6 0 6 -6 -1 -14 -7 -8 -8 -17 -3 -20 13 -8 45 30 37 43 -3 6 -2 11 4 11
17 0 23 -20 11 -35 -10 -12 -9 -15 4 -15 10 0 15 4 12 9 -3 5 3 20 14 32 l20
24 -9 -26 c-9 -26 -9 -27 29 -25 29 2 46 10 66 31 l26 29 -7 -32 c-4 -20 -3
-32 4 -32 6 0 8 7 5 15 -6 15 4 19 39 16 9 -1 17 3 17 8 0 6 5 11 11 11 6 0 9
-6 6 -14 -3 -8 5 -18 19 -25 20 -9 24 -8 24 5 0 14 2 15 17 3 11 -10 17 -11
20 -3 2 7 13 10 23 7 12 -3 20 0 20 6 0 7 5 9 13 4 6 -4 19 -6 29 -5 9 2 19
-2 23 -8 3 -5 14 -10 24 -10 24 0 71 -23 71 -35 0 -5 4 -3 9 4 8 12 13 8 28
-17 10 -18 22 -32 26 -32 5 0 5 -4 2 -10 -3 -5 0 -7 8 -4 8 3 17 -2 20 -10 4
-9 12 -16 18 -16 6 0 22 -12 35 -27 23 -27 24 -27 24 -5 0 12 5 22 11 22 6 0
9 -9 6 -20 -7 -26 0 -25 24 3 10 12 18 16 19 10 0 -7 -6 -13 -12 -13 -9 0 -8
-3 2 -10 9 -6 17 -5 22 3 5 8 8 5 8 -8 0 -11 9 -26 20 -33 22 -14 25 -9 10 18
-9 17 -5 21 37 33 35 10 49 11 52 3 5 -12 32 -35 43 -36 4 0 5 7 2 15 -4 8 -2
15 4 15 14 0 33 -26 25 -33 -3 -4 -1 -7 5 -7 7 0 12 5 12 10 0 6 8 10 18 9 10
0 12 -3 5 -6 -24 -9 -14 -25 12 -19 19 5 23 3 19 -9 -4 -8 -1 -15 5 -15 6 0
11 -6 11 -14 0 -12 6 -13 33 -4 17 5 40 12 50 15 9 3 17 1 17 -5 0 -6 -9 -14
-21 -17 l-21 -7 22 -15 c16 -11 24 -12 35 -3 8 7 20 8 27 4 7 -5 22 -8 33 -9
13 0 20 -6 19 -17 -1 -10 11 -22 30 -29 l31 -13 -28 -3 c-33 -5 -26 -23 9 -23
28 0 44 -27 23 -42 -10 -7 -6 -8 14 -3 19 4 26 2 22 -5 -3 -5 3 -10 14 -10 23
0 36 -16 21 -25 -5 -3 -10 -2 -10 3 0 5 -9 12 -20 15 -27 7 -25 -8 2 -27 28
-20 20 -28 -20 -20 -19 4 -29 11 -26 19 3 8 -4 13 -20 13 -14 0 -26 -4 -26 -9
0 -5 7 -9 15 -9 9 0 12 -6 9 -15 -4 -10 -14 -13 -30 -9 -15 4 -24 2 -24 -6 0
-6 5 -8 10 -5 14 8 67 -45 67 -68 0 -21 -15 -23 -23 -2 -5 12 -8 12 -17 2 -7
-7 -25 -27 -41 -45 l-29 -31 24 -11 c21 -9 20 -10 -11 -5 -32 5 -33 4 -15 -9
25 -18 11 -34 -15 -18 -16 10 -20 10 -20 -2 0 -8 10 -16 23 -18 12 -2 22 -9
21 -15 -1 -7 -2 -26 -2 -43 -2 -25 -6 -30 -27 -30 -25 0 -27 -4 -29 -55 -1
-12 -11 -22 -26 -26 -22 -5 -23 -7 -7 -14 14 -6 15 -10 6 -21 -9 -11 -5 -14
22 -13 22 0 28 3 18 7 -13 6 -14 12 -6 32 8 20 11 22 14 8 5 -21 43 -20 59 1
7 10 17 11 30 6 18 -8 17 -9 -3 -12 -26 -5 -32 -40 -11 -61 8 -8 8 -12 1 -12
-6 0 -16 14 -22 32 -12 33 -25 31 -26 -5 0 -16 -5 -21 -19 -19 -11 2 -15 -1
-11 -7 3 -6 17 -11 30 -11 27 0 42 -16 23 -23 -8 -3 -6 -6 5 -6 9 -1 17 -7 17
-15 0 -8 10 -17 23 -19 17 -3 15 -5 -9 -6 -31 -1 -47 -20 -57 -66 -3 -15 -5
-12 -6 8 -1 31 -20 37 -28 8 -3 -12 -11 -17 -19 -14 -8 3 -18 -5 -24 -21 -10
-28 -30 -35 -30 -11 0 8 -7 15 -16 15 -8 0 -12 -4 -9 -10 3 -5 -2 -10 -12 -10
-15 0 -16 -2 -3 -10 20 -12 8 -21 -29 -22 -31 -1 -68 -28 -40 -28 8 -1 3 -7
-11 -16 l-25 -15 24 7 c14 4 32 16 41 27 17 20 47 16 34 -5 -4 -6 0 -14 7 -19
7 -4 11 -9 9 -11 -48 -31 -89 -45 -99 -35 -8 8 -11 7 -11 -6 0 -21 -16 -22
-24 -2 -6 17 -36 21 -36 5 0 -5 5 -10 11 -10 6 0 8 -7 5 -16 -5 -13 0 -15 27
-10 29 6 30 5 7 -5 -14 -5 -28 -17 -33 -25 -4 -8 -20 -14 -35 -14 -15 0 -36
-7 -46 -15 -19 -14 -18 -15 15 -16 20 -1 26 -3 15 -6 -20 -5 -46 -27 -46 -38
0 -3 5 -3 10 0 6 3 10 2 10 -4 0 -5 -6 -14 -13 -18 -28 -17 -56 -70 -50 -94 5
-20 3 -22 -8 -11 -16 14 -53 16 -44 2 4 -6 11 -8 16 -5 5 4 9 0 9 -8 0 -22
-28 -28 -40 -9 -9 16 -11 16 -25 -2 -15 -19 -15 -19 -15 3 0 18 -4 22 -17 17
-9 -4 -20 -1 -25 6 -5 9 -8 3 -9 -17 0 -16 -3 -24 -6 -17 -7 17 -23 15 -23 -3
0 -8 -4 -15 -9 -15 -4 0 -6 -11 -3 -25 3 -17 0 -25 -9 -25 -10 -1 -10 -4 3
-13 19 -15 19 -64 0 -72 -11 -4 -10 -9 4 -22 11 -11 13 -18 5 -21 -6 -2 -9 -8
-5 -13 3 -5 -2 -12 -10 -15 -9 -3 -13 -10 -10 -15 3 -5 -5 -13 -18 -18 -15 -6
-17 -10 -7 -10 11 -1 15 -8 12 -24 -3 -14 2 -29 11 -36 21 -17 20 -28 -1 -34
-11 -3 -7 -5 10 -6 31 -1 38 -21 7 -21 -11 0 -20 -4 -20 -10 0 -5 6 -10 14
-10 8 0 16 -7 20 -15 3 -8 1 -15 -4 -15 -6 0 -10 -7 -10 -16 0 -12 -3 -14 -13
-6 -8 7 -17 6 -30 -3 -19 -13 -7 -32 13 -20 6 3 10 2 10 -4 0 -5 -5 -13 -11
-16 -6 -4 -8 -13 -5 -21 4 -9 -4 -18 -19 -24 -14 -5 -25 -12 -25 -15 0 -2 12
0 26 5 35 14 44 13 44 -5 0 -9 -9 -15 -24 -15 -23 0 -24 -2 -19 -61 2 -34 8
-70 13 -80 14 -25 13 -29 -7 -29 -15 0 -13 -4 7 -20 14 -10 22 -22 18 -26 -4
-4 -15 -1 -25 7 -12 10 -10 4 6 -18 12 -18 29 -33 37 -33 8 0 13 4 9 9 -6 11
13 26 22 17 4 -3 -1 -14 -11 -24 -16 -19 -13 -52 5 -52 15 0 10 -30 -5 -36 -9
-3 -14 -18 -14 -35 1 -17 4 -25 8 -19 6 9 9 9 15 0 4 -7 2 -16 -5 -20 -8 -5
-11 -19 -7 -39 4 -18 2 -31 -3 -31 -6 0 -10 -7 -10 -15 0 -13 3 -13 26 1 32
22 52 7 33 -24 -13 -21 -13 -23 19 -112 5 -12 3 -13 -9 -3 -9 8 -20 9 -29 3
-11 -7 -11 -10 -2 -10 10 0 10 -5 2 -21 -6 -11 -9 -25 -6 -32 2 -7 5 -4 5 6 1
25 16 21 29 -8 15 -33 15 -35 -5 -36 -11 0 -13 -3 -5 -6 6 -2 12 -13 12 -23 0
-9 7 -23 15 -30 13 -10 12 -15 -3 -36 -9 -13 -22 -24 -28 -24 -6 0 -17 -7 -24
-15 -16 -19 -34 -19 -26 0 4 13 1 13 -25 2 -33 -13 -40 -30 -13 -35 9 -2 14 1
10 6 -4 6 9 8 36 5 55 -7 58 -10 14 -17 -20 -3 -53 -9 -73 -12 -28 -4 -33 -8
-22 -16 11 -7 9 -8 -6 -3 -48 17 -55 17 -55 0 0 -12 -5 -15 -17 -10 -15 5 -16
4 -5 -6 14 -15 16 -33 2 -24 -5 3 -10 -1 -10 -9 0 -8 8 -16 18 -18 13 -3 11
-7 -12 -18 -37 -19 -43 -36 -17 -45 12 -3 21 -11 21 -16 0 -6 -9 -7 -20 -4
-11 4 -20 2 -20 -4 0 -6 -7 -11 -16 -11 -12 0 -10 -5 9 -20 29 -23 45 -26 28
-6 -8 10 -9 16 -1 21 5 3 10 2 10 -4 0 -5 3 -16 6 -25 4 -12 0 -16 -15 -16
-28 0 -29 -40 -1 -47 11 -3 17 -10 13 -17 -4 -6 1 -5 10 3 15 12 17 11 18 -5
1 -11 0 -25 -1 -33 -1 -9 4 -12 14 -8 8 3 18 2 21 -3 10 -16 42 -12 49 6 8 21
8 24 -4 24 -5 0 -10 -7 -10 -16 0 -9 -7 -14 -17 -12 -26 5 -22 32 5 36 12 2
22 10 22 17 0 9 6 12 15 9 8 -4 15 -3 15 0 0 10 -33 45 -39 41 -3 -1 -6 10 -7
26 -1 16 3 29 7 29 5 0 9 9 9 20 0 11 5 20 10 20 6 0 10 -4 10 -10 0 -5 7 -10
15 -10 25 0 17 17 -14 29 -22 10 -27 17 -23 36 2 15 13 26 29 30 26 6 48 -4
26 -12 -7 -2 -9 -11 -6 -19 3 -8 0 -14 -6 -14 -6 0 -11 7 -11 15 0 8 -4 15
-10 15 -22 0 -8 -26 26 -48 19 -12 32 -27 29 -32 -3 -5 -1 -12 5 -15 8 -5 7
-11 -1 -21 -12 -15 -7 -17 26 -15 16 2 17 0 5 -8 -8 -5 -11 -14 -6 -18 4 -4
13 0 21 10 11 16 13 16 19 2 3 -9 2 -13 -4 -10 -6 3 -10 -1 -10 -10 0 -12 -5
-15 -17 -11 -16 5 -15 4 1 -9 10 -8 22 -12 27 -10 4 3 10 -4 14 -15 3 -11 11
-20 16 -20 5 0 9 -7 9 -16 0 -11 6 -15 20 -11 17 4 19 1 14 -19 -4 -14 -1 -31
6 -39 10 -12 9 -15 -4 -15 -9 0 -16 7 -16 15 0 8 -4 15 -10 15 -5 0 -10 -8
-10 -17 0 -10 -4 -24 -9 -31 -5 -8 -6 6 -4 35 3 34 0 54 -11 68 -15 19 -15 18
-16 -19 0 -36 -2 -38 -25 -34 -21 5 -25 2 -20 -13 4 -13 1 -19 -9 -19 -9 0
-16 8 -17 18 0 14 -2 14 -9 -3 -5 -14 -3 -24 8 -32 9 -7 13 -14 9 -14 -4 -1
-11 -3 -17 -4 -5 -1 -16 -3 -24 -4 -8 0 -22 -8 -31 -18 -11 -10 -19 -12 -23
-6 -4 6 -23 13 -42 17 -19 3 -29 3 -22 0 6 -3 12 -10 12 -14 0 -5 -23 3 -51
17 -42 22 -52 24 -60 12 -5 -8 -9 -10 -9 -5 0 5 -6 3 -14 -3 -9 -8 -16 -8 -20
-2 -4 6 -14 7 -22 4 -9 -3 -32 -7 -53 -8 -20 -1 -46 -3 -59 -4 -13 0 -20 -5
-17 -11 3 -5 1 -10 -4 -10 -6 0 -11 5 -11 11 0 6 -16 8 -42 5 -24 -4 -88 -2
-143 2 -55 5 -114 5 -132 1 -19 -4 -36 -2 -43 5 -10 8 -11 7 -8 -4 6 -19 -32
-40 -50 -27 -7 5 -15 8 -18 5 -9 -9 18 -57 35 -61 13 -4 13 -5 -2 -6 -29 -2
-19 -56 10 -55 16 0 20 -3 13 -11 -7 -8 -1 -19 17 -35 l26 -22 -6 23 -6 24 18
-22 c15 -18 21 -20 30 -9 6 7 8 16 4 19 -3 4 2 7 11 7 14 0 17 -5 12 -24 -3
-14 -1 -28 6 -32 7 -4 8 -3 4 4 -4 7 -2 12 5 12 7 0 9 10 6 30 -4 19 -2 30 4
30 7 0 9 10 5 24 -10 41 52 70 86 39 10 -9 18 -12 18 -7 0 5 6 2 13 -7 17 -22
47 -31 62 -19 9 8 15 8 20 0 3 -6 11 -8 16 -4 6 3 7 -4 3 -20 -4 -16 -2 -26 5
-26 6 0 8 7 5 15 -9 23 32 13 56 -13 12 -12 25 -22 30 -22 5 0 7 -7 4 -15 -5
-11 -2 -13 10 -9 12 5 15 2 10 -10 -6 -15 9 -21 43 -17 6 1 14 -3 18 -9 11
-17 47 -11 52 9 9 34 28 31 26 -3 -2 -42 -2 -41 -14 -29 -6 6 -18 9 -25 6 -25
-10 -14 -20 23 -21 20 -1 40 -7 43 -13 4 -6 23 -11 42 -11 31 0 34 -2 30 -24
-6 -31 -17 -38 -32 -19 -10 12 -14 12 -26 0 -8 -7 -14 -16 -14 -19 0 -12 28
-6 33 7 3 7 6 5 6 -5 1 -10 -3 -18 -9 -18 -5 0 -1 -9 10 -20 11 -11 20 -24 20
-30 0 -17 18 -11 23 8 4 14 6 14 12 -5 4 -13 13 -23 20 -23 18 0 28 -32 13
-41 -13 -8 -33 5 -33 22 0 5 -4 8 -10 7 -12 -4 -7 -30 7 -39 7 -4 6 -9 -1 -13
-6 -4 -11 -2 -11 4 0 7 -8 9 -20 5 -11 -3 -32 -8 -46 -11 -38 -7 -55 -26 -37
-42 10 -10 13 -10 13 0 1 8 7 5 18 -7 11 -12 32 -21 56 -22 21 -2 45 -8 52
-14 7 -6 18 -8 25 -4 22 14 28 -18 9 -46 -11 -14 -16 -29 -12 -33 4 -4 8 -12
8 -17 1 -5 2 -13 3 -19 0 -5 6 -10 12 -10 5 0 8 4 5 9 -9 14 4 41 20 41 7 0
16 -11 20 -25 3 -14 11 -25 16 -25 6 0 8 9 5 20 -7 27 11 25 23 -3 5 -12 9
-18 9 -14 1 11 41 -12 41 -23 0 -6 -8 -10 -17 -10 -13 0 -14 -3 -5 -12 15 -15
16 -38 1 -38 -6 0 -9 6 -6 13 5 14 -29 21 -38 7 -3 -4 -14 -6 -25 -3 -12 3
-20 0 -20 -7 0 -7 7 -10 15 -6 10 4 14 -1 12 -16 -1 -11 4 -23 11 -25 7 -3 12
4 12 16 0 12 4 21 10 21 5 0 7 -6 4 -14 -3 -8 -1 -17 5 -21 6 -3 11 1 11 10 0
13 4 14 20 5 25 -13 27 -31 3 -24 -17 5 -17 5 0 -6 11 -7 17 -24 17 -46 0 -22
4 -33 11 -29 6 4 8 13 5 21 -3 7 -1 16 5 20 6 4 5 12 -3 22 -11 13 -11 15 4 9
9 -3 19 -1 21 6 3 7 8 5 12 -7 4 -10 4 -21 -1 -25 -6 -3 -9 -22 -8 -41 1 -40
-5 -62 -16 -55 -4 2 -14 -3 -23 -13 -14 -15 -14 -19 4 -41 11 -13 22 -21 26
-17 3 3 -2 15 -12 26 -18 20 -17 20 8 20 19 0 27 5 27 18 0 14 2 15 10 2 5 -8
5 -17 0 -20 -5 -3 -10 -22 -12 -43 -1 -20 -6 -37 -11 -37 -4 0 -6 -4 -3 -8 2
-4 -11 -9 -29 -10 -28 -2 -33 1 -29 13 3 8 10 15 16 15 5 0 6 -5 3 -10 -3 -6
-2 -10 4 -10 19 0 24 23 8 35 -10 7 -17 17 -17 24 0 7 -9 9 -25 5 -18 -4 -32
-1 -45 11 -11 10 -26 15 -35 11 -13 -5 -15 -1 -10 17 5 18 4 19 -5 5 -11 -17
-4 -48 11 -48 4 0 6 -7 3 -15 -4 -9 0 -15 9 -15 8 0 17 -7 20 -14 4 -11 1 -13
-10 -9 -9 4 -14 2 -10 -3 10 -16 -8 -35 -27 -28 -15 6 -15 7 1 21 17 13 16 13
-3 4 -12 -6 -24 -7 -28 -4 -3 3 -6 1 -6 -5 0 -6 10 -18 22 -26 12 -9 17 -16
10 -16 -6 0 -12 -6 -12 -14 0 -8 -4 -17 -9 -21 -6 -3 -8 4 -6 15 2 12 -2 23
-10 27 -8 3 -15 11 -15 18 0 14 -29 29 -38 20 -3 -3 0 -5 7 -5 17 0 31 -42 18
-58 -7 -9 -5 -11 9 -7 10 3 6 -1 -11 -9 -16 -8 -40 -12 -51 -10 -14 4 -23 0
-27 -10 -4 -9 -14 -16 -23 -16 -12 0 -15 6 -11 23 5 20 5 20 -7 4 -7 -9 -18
-17 -25 -17 -6 0 -11 -4 -11 -10 0 -5 13 -10 29 -10 15 0 50 -3 76 -7 45 -6
48 -5 42 13 -7 18 -6 18 6 2 15 -18 41 -19 310 -2 88 5 100 4 112 -13 12 -16
11 -19 -8 -25 -22 -6 -22 -6 1 -7 19 -1 22 -5 17 -21 -4 -11 -2 -20 4 -20 6 0
9 -16 7 -40 -3 -30 0 -40 10 -40 8 0 14 7 14 16 0 8 5 12 10 9 7 -4 7 -11 2
-18 -21 -26 -33 -86 -23 -106 8 -14 8 -21 -2 -24 -9 -4 -8 -8 3 -17 11 -9 12
-13 3 -17 -18 -7 -16 -21 5 -26 12 -3 9 -5 -8 -6 -35 -2 -77 -38 -62 -53 17
-17 15 -26 -5 -31 -17 -4 -17 -5 0 -6 25 -2 21 -27 -5 -36 -13 -4 -26 -7 -30
-6 -4 0 -5 -6 -2 -14 7 -17 20 -20 29 -6 9 15 86 9 81 -6 -3 -6 4 -15 15 -18
12 -4 19 -15 19 -31 0 -15 6 -24 15 -24 8 0 15 -4 15 -9 0 -5 -8 -7 -19 -4
-10 3 -22 0 -25 -6 -4 -6 0 -11 10 -11 13 0 14 -3 4 -15 -14 -17 -3 -20 19 -6
8 5 20 7 28 4 16 -6 -29 -33 -54 -33 -9 0 -3 -10 15 -25 17 -14 42 -25 56 -25
l26 0 -17 -27 c-28 -44 -46 -63 -60 -63 -17 0 -17 -20 0 -21 6 0 3 -4 -8 -9
-18 -8 -17 -9 7 -9 15 -1 29 -5 33 -11 4 -6 15 -6 31 0 31 12 44 13 44 2 0 -5
-16 -14 -35 -22 -32 -13 -49 -40 -25 -40 7 0 7 -6 1 -18 -7 -14 -5 -21 9 -29
14 -10 22 -8 39 11 12 12 18 26 14 31 -5 4 -2 5 5 1 8 -5 11 -17 8 -31 -3 -13
-1 -27 4 -30 6 -4 7 -11 4 -17 -4 -7 -2 -8 4 -4 7 4 12 14 12 22 0 8 5 14 10
14 6 0 10 -7 10 -15 0 -8 5 -15 10 -15 6 0 10 8 10 18 0 13 2 14 9 3 7 -11 10
-11 15 0 3 8 4 1 1 -15 -5 -25 -4 -27 8 -14 9 9 13 25 10 41 -4 21 -2 25 13
21 11 -2 42 8 69 24 41 23 50 32 47 52 -1 13 -8 28 -15 32 -9 6 -9 8 1 8 7 0
17 -10 22 -22 5 -13 9 -17 9 -10 1 8 8 11 20 7 12 -3 21 0 25 10 3 9 0 15 -9
15 -19 0 -19 14 0 30 12 10 15 10 15 -4 0 -10 9 -16 24 -16 13 0 26 -7 30 -15
3 -8 15 -15 26 -15 28 0 25 -17 -5 -22 -14 -3 -25 -1 -25 3 0 5 -6 9 -14 9 -8
0 -17 6 -19 13 -4 7 -6 6 -6 -4 -1 -9 -8 -19 -16 -23 -8 -3 -12 -12 -9 -21 9
-22 24 -19 24 5 0 11 7 20 16 20 10 0 13 -6 10 -18 -4 -11 2 -27 14 -40 22
-23 26 -42 10 -42 -5 0 -10 5 -10 11 0 6 -7 17 -15 25 -20 21 -19 0 1 -32 18
-27 12 -43 -9 -26 -24 20 -25 3 -4 -40 20 -39 20 -41 2 -54 -10 -8 -15 -20
-11 -29 9 -23 -4 -65 -19 -65 -7 0 -15 5 -17 11 -2 6 -3 -8 -3 -31 0 -23 1
-37 3 -31 2 6 10 11 18 11 19 0 18 -29 -2 -37 -12 -4 -14 -14 -8 -47 3 -22 11
-49 16 -59 14 -28 -3 -43 -18 -16 l-13 24 -1 -30 c0 -17 -7 -40 -15 -51 -16
-24 -11 -34 17 -34 15 0 19 -6 16 -23 -2 -15 7 -33 22 -48 28 -27 32 -55 10
-69 -8 -5 -13 -10 -10 -11 3 0 14 -3 25 -5 11 -3 125 -8 254 -11 168 -3 231
-2 227 6 -4 6 -2 11 3 11 6 0 11 -5 11 -10 0 -6 32 -10 84 -8 47 1 83 5 80 10
-3 4 0 8 5 8 6 0 11 -4 11 -9 0 -5 48 -9 106 -10 81 -1 103 2 98 12 -6 9 -5 9
7 0 18 -14 149 -15 167 0 9 7 16 7 24 -1 19 -19 58 -15 58 6 1 16 1 16 11 0 5
-10 17 -18 26 -18 10 0 13 6 9 18 -6 16 -5 16 8 -1 12 -16 29 -17 163 -15
l149 3 2 130 c2 80 -1 125 -6 116 -6 -8 -12 -9 -16 -3 -3 5 1 12 9 15 12 5 14
83 14 545 l0 539 -91 7 c-125 8 -178 8 -178 -3 0 -5 10 -13 23 -18 38 -14 136
-77 141 -90 8 -20 -3 -39 -29 -51 -18 -8 -25 -8 -29 1 -5 9 -7 9 -12 0 -9 -20
-37 -16 -30 3 5 14 1 15 -28 10 -29 -6 -35 -3 -41 15 -5 14 -13 19 -26 16 -12
-3 -24 2 -34 15 -8 12 -26 21 -43 22 -17 1 -28 4 -25 9 2 4 -1 7 -7 7 -7 0
-21 11 -31 24 -16 20 -26 24 -53 19 -30 -5 -36 -2 -50 23 -8 16 -15 23 -16 17
0 -7 -10 -13 -21 -13 -18 0 -19 2 -9 15 10 12 10 18 0 31 -12 13 -16 12 -36
-11 -13 -15 -20 -33 -18 -40 9 -23 -17 -28 -33 -6 -11 16 -21 20 -36 15 -29
-9 -38 -25 -25 -42 8 -9 8 -16 0 -24 -8 -8 -13 -6 -17 8 -3 10 -15 38 -27 61
-11 23 -18 49 -15 57 3 8 -1 20 -9 26 -8 7 -14 21 -14 31 0 10 -8 22 -17 27
-11 7 -17 23 -17 50 -1 22 -5 44 -9 49 -21 20 -39 84 -43 153 -3 41 -8 77 -12
80 -10 6 -12 170 -3 170 4 0 8 38 9 85 1 47 3 89 3 93 4 21 -3 24 -16 6 -14
-18 -14 -18 -15 9 0 15 6 30 14 33 11 4 13 23 11 77 -1 40 -4 74 -5 77 -1 3
-1 10 0 15 15 62 17 76 10 80 -4 3 -2 22 5 42 8 23 10 39 4 41 -6 2 -4 13 4
25 8 12 17 40 21 62 6 38 5 37 -19 -18 -71 -162 -173 -281 -388 -452 -21 -16
-45 -36 -53 -43 -7 -7 -19 -10 -25 -6 -7 4 -9 3 -6 -3 3 -5 -3 -17 -13 -26
-18 -15 -20 -15 -30 1 -9 14 -10 13 -6 -9 4 -18 -1 -30 -17 -43 -12 -10 -37
-32 -54 -49 -27 -25 -33 -27 -33 -13 0 9 5 14 10 11 6 -3 10 1 10 10 0 11 -5
15 -15 11 -8 -3 -15 -1 -15 5 0 7 10 9 24 5 14 -3 28 -2 31 4 3 5 1 10 -4 10
-6 0 -11 5 -11 10 0 6 10 8 24 4 19 -4 25 -1 30 21 4 14 4 30 1 35 -3 5 3 14
14 20 11 5 25 26 32 45 14 37 28 47 25 18 0 -10 5 -17 12 -16 13 3 16 -9 5
-20 -3 -4 -12 -2 -20 4 -7 6 -14 9 -14 5 -1 -3 -2 -9 -3 -13 -1 -5 -5 -14 -9
-21 -5 -6 -4 -12 1 -12 6 0 13 7 16 16 3 8 10 13 15 9 10 -5 51 32 51 47 0 4
7 5 16 1 13 -5 15 -2 9 15 -4 14 -2 22 5 22 7 0 10 8 7 20 -4 15 0 20 14 20
10 0 19 7 19 15 0 18 12 19 29 2 11 -10 12 -8 7 8 -3 11 -1 27 4 35 8 13 10
12 10 -2 0 -23 6 -23 41 2 15 12 26 27 23 34 -3 7 1 16 9 19 8 3 29 26 46 52
17 25 26 43 20 39 -7 -4 -10 0 -7 10 1 10 6 17 11 17 15 -2 44 34 35 44 -4 5
-8 14 -8 20 0 5 5 3 10 -5 7 -11 10 -3 11 30 1 25 4 35 6 23 2 -13 9 -23 14
-23 5 0 9 6 7 13 -1 6 4 23 11 35 7 13 10 26 7 30 -3 3 -6 0 -6 -6 0 -7 -4
-12 -10 -12 -19 0 -10 24 16 45 28 23 37 59 27 114 l-6 35 -18 -23 c-20 -24
-26 -14 -10 17 25 50 31 71 28 115 -2 26 0 50 5 53 4 3 8 25 8 50 0 24 5 44
10 44 6 0 10 9 10 20 0 11 -5 20 -11 20 -8 0 -8 4 1 15 6 8 10 20 7 27 -3 8
-6 5 -7 -7 -1 -12 -5 -7 -10 14 -6 24 -4 41 6 56 8 12 12 24 9 27 -3 3 -6 27
-7 54 0 27 -4 51 -9 54 -4 3 -11 31 -14 61 -5 46 -3 58 10 62 22 9 20 73 -2
87 -15 9 -13 10 10 5 26 -5 27 -4 27 35 0 26 -4 39 -12 37 -8 -1 -15 20 -20
58 -4 33 -13 70 -19 82 -6 11 -9 27 -6 35 4 9 6 7 6 -4 1 -10 6 -18 11 -18 6
0 10 -7 10 -15 0 -8 5 -15 10 -15 14 0 12 44 -2 58 -10 10 -10 15 1 21 8 5 11
16 6 30 -4 12 -2 21 4 21 12 0 15 -20 12 -59 -3 -38 6 -55 22 -40 14 14 11 55
-6 77 -6 8 -6 12 1 12 13 0 23 38 11 46 -5 3 -9 -3 -10 -13 -1 -13 -3 -11 -9
7 -12 37 -11 70 1 70 6 0 9 -6 6 -14 -5 -12 11 -26 29 -26 10 0 3 57 -8 68
-10 10 -10 15 -1 20 14 9 6 52 -9 52 -5 0 -6 9 -3 21 4 13 1 25 -8 32 -22 17
-40 89 -25 98 7 4 16 5 20 3 4 -3 8 1 8 10 0 8 -6 17 -12 20 -10 5 -10 7 0 12
6 3 12 15 12 26 0 16 -3 18 -13 9 -11 -8 -18 -6 -32 9 -14 15 -15 20 -4 20 12
0 12 2 0 9 -9 6 -10 11 -2 15 13 8 15 66 2 66 -4 0 -9 24 -10 53 0 28 -5 66
-10 84 -5 17 -7 34 -3 37 3 3 1 6 -5 6 -6 0 -13 7 -16 14 -4 11 -1 13 11 9 15
-6 15 -5 3 11 -10 12 -11 20 -4 24 6 4 8 22 5 42 -4 26 -7 30 -11 16 -6 -14
-9 -11 -18 19 -10 33 -10 36 5 30 9 -3 2 9 -17 29 -18 19 -31 40 -28 48 4 10
6 9 6 -2 1 -8 15 -24 31 -35 16 -11 30 -23 30 -27 0 -5 3 -8 8 -8 4 0 6 18 4
40 -2 22 -9 40 -14 40 -6 0 -7 -11 -4 -25 7 -29 1 -32 -21 -10 -8 9 -12 23 -8
32 3 10 3 14 -1 10 -5 -4 -18 9 -31 29 l-22 38 22 11 c22 11 30 5 53 -45 4 -8
13 -18 20 -22 6 -4 15 -24 18 -43 4 -19 11 -35 16 -35 6 0 10 -6 10 -13 0 -8
7 -14 15 -14 8 0 15 6 15 14 0 7 7 13 16 13 12 0 14 -3 6 -13 -6 -7 -9 -22 -7
-32 2 -11 4 -26 4 -32 1 -7 7 -13 15 -13 11 0 13 9 9 34 -5 32 -3 34 16 29 11
-3 21 -11 21 -18 0 -8 3 -21 7 -31 4 -12 3 -15 -5 -10 -8 5 -12 -1 -12 -18 0
-13 -3 -33 -7 -43 -3 -10 -3 -15 2 -11 4 4 14 -4 22 -18 16 -32 16 -37 1 -28
-10 6 -10 4 0 -7 6 -7 12 -38 12 -69 0 -31 5 -61 10 -66 10 -10 22 -52 23 -79
0 -5 -3 -20 -7 -33 -5 -16 -3 -24 8 -28 9 -3 16 -14 16 -24 0 -16 26 -47 75
-88 9 -7 15 -29 15 -52 0 -22 5 -40 10 -40 6 0 10 19 10 43 0 23 7 51 15 61
18 24 18 23 0 -105 -19 -137 -41 -242 -74 -349 -66 -218 -108 -398 -98 -425
11 -27 173 -5 265 36 82 38 141 108 133 159 -2 11 2 10 12 -4 13 -18 14 -18
37 5 12 13 47 61 77 106 116 177 136 257 131 518 -5 211 -33 372 -75 437 -14
21 -28 38 -32 38 -3 0 -6 18 -7 40 0 28 4 40 13 40 17 0 16 84 0 140 -6 19
-11 46 -12 60 -1 14 -5 49 -10 79 -6 40 -5 52 4 47 17 -11 14 1 -15 58 -14 28
-28 63 -29 79 -4 24 -2 26 15 17 10 -5 22 -19 25 -31 4 -11 9 -18 12 -15 3 2
-16 43 -41 90 -48 90 -48 114 -1 46 39 -56 42 -50 7 13 -16 28 -32 65 -36 81
-6 26 -5 28 9 16 28 -23 25 -5 -5 31 -16 19 -29 39 -29 44 0 6 4 2 10 -7 19
-34 28 -18 14 23 -30 83 -10 91 69 27 49 -40 50 -41 18 -6 -24 26 -30 37 -20
41 9 4 6 8 -9 12 -13 4 -20 12 -16 21 3 8 -1 14 -10 14 -9 0 -18 13 -22 30 -4
16 -11 32 -16 35 -5 4 -9 13 -9 21 0 8 5 12 10 9 6 -3 10 -2 10 3 0 5 -11 14
-25 20 -14 6 -25 16 -25 22 0 6 12 3 28 -7 26 -17 26 -16 -6 20 -21 25 -31 45
-27 56 3 11 -7 34 -25 59 l-30 42 24 0 c29 0 43 17 27 33 -8 8 -11 8 -11 -2 0
-7 -5 -9 -11 -6 -6 4 -8 10 -5 13 4 3 0 15 -8 28 -18 26 -9 41 10 16 7 -9 16
-14 20 -9 4 4 2 13 -4 19 -17 17 -15 23 13 36 35 16 60 15 75 -3 7 -9 20 -15
29 -13 9 1 22 -1 29 -5 7 -5 12 -3 12 7 0 8 -9 18 -20 21 -11 3 -20 12 -20 20
0 16 -54 45 -83 45 -11 0 -34 13 -53 30 -32 27 -33 30 -16 46 18 19 20 19 -32
-2 -11 -4 -13 0 -9 15 3 11 24 30 47 42 49 25 85 59 63 59 -8 0 -20 -7 -28
-16 -13 -16 -82 -54 -96 -54 -14 1 41 40 57 41 9 0 11 2 3 5 -6 3 -25 -2 -42
-10 -42 -22 -51 -19 -21 6 20 17 21 20 5 14 -48 -19 -52 -18 -89 32 -41 57
-43 62 -18 62 15 1 15 2 -3 16 l-20 15 20 17 c11 9 33 35 50 57 l29 40 -36
-30 c-20 -16 -37 -34 -37 -38 -1 -13 -52 -60 -58 -53 -7 7 8 26 86 108 108
114 124 162 21 62 -86 -84 -103 -93 -129 -70 -13 12 -20 14 -23 5 -2 -6 -2 21
0 60 3 48 1 71 -7 71 -6 0 -11 11 -11 24 0 14 -4 28 -10 31 -6 4 -10 -7 -10
-24 0 -36 -13 -40 -28 -8 -8 16 -11 18 -11 5 -1 -11 -7 -15 -21 -11 -31 8 -24
20 28 53 26 16 42 30 36 30 -5 0 -31 -13 -57 -30 -26 -16 -54 -30 -62 -30 -8
0 -29 13 -47 30 -26 23 -30 32 -19 39 7 5 10 14 6 20 -5 8 -11 9 -19 2 -9 -7
-17 -4 -30 10 -14 17 -15 23 -4 36 11 14 10 15 -9 9 -24 -8 -42 14 -43 52 0 4
-4 1 -9 -7 -7 -11 -13 -10 -35 4 -25 16 -25 18 -9 31 10 7 32 14 48 15 25 1
26 2 7 6 -13 3 -36 0 -53 -6 -35 -12 -35 -11 -6 37 31 48 49 82 44 82 -2 0
-18 -23 -36 -51 -17 -28 -34 -49 -37 -46 -3 3 2 26 10 51 9 25 18 60 21 78 4
18 15 48 26 66 10 18 15 31 10 27 -18 -10 -8 54 11 75 10 11 16 20 13 20 -3 0
6 21 20 48 24 43 25 44 4 17 -13 -16 -32 -36 -41 -44 -10 -9 -18 -21 -18 -29
0 -9 -15 -12 -56 -11 -43 2 -60 -1 -69 -14 -16 -22 -39 -22 -31 -1 5 13 4 14
-7 6 -23 -19 -35 4 -26 51 4 23 5 44 3 46 -2 2 4 10 14 18 9 8 11 11 3 7 -7
-3 -17 0 -22 7 -6 10 -9 11 -9 2 0 -8 -14 -13 -35 -13 -21 0 -35 5 -35 13 0 8
-3 7 -10 -3 -5 -8 -23 -15 -41 -16 -17 -1 -35 -7 -40 -15 -19 -29 -3 27 17 62
15 25 33 39 64 49 23 8 38 16 31 18 -6 2 -25 -1 -41 -7 -28 -9 -30 -9 -19 10
5 11 9 30 7 42 l-3 22 -21 -23 c-23 -25 -39 -16 -27 14 4 12 3 15 -5 10 -7 -4
-12 -18 -12 -31 0 -13 -8 -29 -17 -34 -10 -6 -14 -11 -9 -11 5 0 1 -10 -10
-22 -17 -21 -16 -21 9 1 21 20 27 21 27 8 0 -20 -16 -30 -51 -32 -24 -1 -27 1
-18 17 5 10 14 18 20 18 6 0 7 5 4 11 -4 6 1 20 12 32 10 12 29 42 41 67 13
25 17 37 10 27 -56 -80 -86 -116 -93 -109 -5 4 -6 2 -2 -3 9 -17 -4 -29 -77
-69 -45 -24 -65 -31 -55 -20 40 52 87 98 113 111 18 10 25 18 17 22 -7 5 -3
15 15 32 14 13 40 42 57 64 18 23 -2 8 -49 -38 -70 -69 -83 -78 -114 -76 -37
2 -84 -13 -95 -30 -3 -6 -11 -11 -16 -11 -6 0 -7 5 -4 11 4 6 -12 1 -35 -11
-57 -29 -43 -10 30 41 33 23 58 44 55 47 -2 3 -31 -14 -64 -36 -63 -45 -88
-55 -50 -21 13 11 18 18 12 14 -7 -3 -13 -2 -13 2 0 5 6 15 13 23 6 8 -3 2
-20 -14 -18 -17 -33 -26 -33 -22 0 5 -6 3 -14 -3 -8 -7 -28 -16 -46 -21 -26
-7 -31 -7 -26 5 3 9 0 15 -8 15 -8 0 -17 -6 -19 -12 -4 -10 -6 -10 -6 -1 -1 7
11 19 27 27 l27 16 -34 -3 c-44 -3 -49 14 -10 36 18 10 29 21 25 24 -3 4 8 22
26 41 21 22 26 31 13 24 -11 -6 -38 -29 -60 -52 -45 -47 -101 -78 -128 -72
-10 2 -24 -2 -32 -8 -10 -8 -15 -9 -15 -2 0 6 8 16 18 21 9 6 11 11 5 11 -9 0
-10 7 -3 26 13 34 13 39 -3 25 -8 -6 -22 -29 -32 -51 -13 -29 -23 -39 -39 -37
-11 1 -24 11 -28 22 -5 17 -6 16 -7 -6 -1 -26 -36 -48 -43 -27 -2 6 -14 5 -32
-2 -31 -11 -42 -8 -31 9 3 6 18 12 33 12 17 1 21 3 10 6 -22 5 -22 13 -3 39
17 22 20 38 5 29 -16 -10 -12 7 11 44 11 18 19 42 17 52 -2 15 -12 8 -46 -33
-25 -32 -41 -60 -38 -71 2 -9 0 -15 -5 -12 -4 3 -26 -6 -48 -20 -43 -27 -56
-31 -46 -15 9 14 -7 12 -29 -5 -14 -11 -23 -12 -33 -4 -19 16 -17 20 24 75 20
27 27 40 14 30 -12 -11 -31 -35 -42 -53 -11 -18 -27 -33 -35 -33 -9 0 -13 -4
-9 -9 3 -5 0 -13 -6 -17 -8 -5 -10 1 -7 20 7 34 2 33 -17 -5 -27 -52 -28 -25
-1 35 14 31 29 56 35 56 6 0 15 10 22 21 6 13 7 19 1 15 -6 -3 -12 -1 -14 4
-2 6 -16 -14 -31 -44 -15 -30 -34 -57 -42 -60 -18 -6 -19 7 -5 35 7 11 7 19 1
19 -5 0 -15 -16 -21 -35 -6 -19 -16 -37 -21 -41 -5 -3 -50 35 -100 85 -50 50
-91 91 -93 91 -1 0 -2 -8 -1 -17z m545 -88 c-7 -14 -17 -25 -22 -25 -5 0 -1
14 7 31 9 17 19 28 22 25 4 -3 0 -17 -7 -31z m-429 -52 c13 -16 12 -17 -3 -4
-10 7 -18 15 -18 17 0 8 8 3 21 -13z m-47 -23 c-4 -19 -2 -30 4 -30 6 0 9 8 6
18 -5 14 -4 15 5 2 11 -16 15 -48 5 -37 -4 3 -15 -4 -25 -16 l-18 -22 -1 43
c0 24 6 49 13 57 17 20 17 19 11 -15z m400 -14 c-3 -9 -16 -16 -28 -16 -21 1
-21 1 3 21 26 22 35 20 25 -5z m38 2 c-7 -7 -12 -8 -12 -2 0 14 12 26 19 19 2
-3 -1 -11 -7 -17z m924 -43 c-9 -14 -21 -25 -27 -25 -6 0 -1 14 11 31 26 36
40 31 16 -6z m-1436 0 c0 -8 -4 -15 -10 -15 -5 0 -10 7 -10 15 0 8 5 15 10 15
6 0 10 -7 10 -15z m985 -15 c-10 -11 -20 -18 -22 -16 -6 5 30 44 36 39 2 -1
-4 -12 -14 -23z m226 0 c-19 -16 -36 -28 -38 -26 -8 8 12 38 31 46 39 16 41 9
7 -20z m-646 10 c-3 -5 -10 -10 -16 -10 -5 0 -9 5 -9 10 0 6 7 10 16 10 8 0
12 -4 9 -10z m-755 -28 c0 -5 -9 -19 -19 -31 l-20 -23 4 29 c2 15 4 29 4 31 2
6 31 1 31 -6z m80 4 c0 -3 -4 -8 -10 -11 -5 -3 -10 -1 -10 4 0 6 5 11 10 11 6
0 10 -2 10 -4z m100 0 c0 -3 -4 -8 -10 -11 -5 -3 -10 -1 -10 4 0 6 5 11 10 11
6 0 10 -2 10 -4z m900 0 c0 -3 -4 -8 -10 -11 -5 -3 -10 -1 -10 4 0 6 5 11 10
11 6 0 10 -2 10 -4z m210 -10 c0 -3 -4 -8 -10 -11 -5 -3 -10 -1 -10 4 0 6 5
11 10 11 6 0 10 -2 10 -4z m184 -45 c-16 -32 -36 -44 -59 -35 -23 9 -18 20 18
42 47 30 58 28 41 -7z m82 -36 c-5 -18 -12 -25 -21 -21 -8 3 -22 -2 -30 -11
-9 -8 -19 -13 -22 -10 -3 4 11 23 31 43 40 40 52 40 42 -1z m-1876 -43 c0 -10
-8 -7 -25 12 -14 15 -22 32 -19 38 9 14 44 -27 44 -50z m45 27 c6 -19 0 -38
-9 -28 -10 12 -16 49 -7 49 5 0 13 -9 16 -21z m2020 -9 c9 -30 -17 -76 -40
-72 -30 6 -30 9 -1 39 15 15 23 29 17 31 -6 2 -9 8 -5 13 9 15 22 10 29 -11z
m-48 -27 c-16 -16 -17 -16 -17 3 0 11 3 24 7 27 4 4 11 3 17 -3 7 -7 5 -16 -7
-27z m-2063 -9 c3 -8 10 -12 16 -9 5 3 10 1 10 -4 0 -15 -33 -14 -48 1 -16 16
-15 28 2 28 8 0 17 -7 20 -16z m2036 6 c0 -5 -4 -10 -10 -10 -5 0 -10 5 -10
10 0 6 5 10 10 10 6 0 10 -4 10 -10z m-2061 -44 c14 -15 18 -26 12 -30 -6 -4
-17 7 -26 24 -19 36 -16 38 14 6z m2041 -31 c0 -8 -4 -17 -10 -20 -5 -3 -10 1
-10 10 0 9 -4 13 -10 10 -11 -7 -14 8 -4 18 10 9 34 -4 34 -18z m64 6 c10 -16
-5 -40 -25 -38 -20 1 -22 6 -13 31 7 17 29 21 38 7z m184 -6 c-2 -6 -7 -9 -11
-7 -5 1 -6 -2 -2 -8 8 -12 -55 -90 -73 -90 -7 0 -11 -4 -8 -9 3 -5 -1 -14 -9
-21 -24 -20 -19 8 8 44 13 17 29 45 36 63 12 29 32 43 54 39 5 -1 7 -6 5 -11z
m-142 -19 c0 -13 -3 -22 -5 -20 -2 2 -10 -1 -18 -7 -16 -14 -16 -9 -3 25 12
33 28 34 26 2z m34 4 c0 -5 -4 -10 -10 -10 -5 0 -10 5 -10 10 0 6 5 10 10 10
6 0 10 -4 10 -10z m-165 -20 c10 -11 15 -20 11 -20 -4 0 -16 9 -28 20 -12 11
-17 20 -11 20 5 0 18 -9 28 -20z m180 -14 c-18 -27 -35 -34 -35 -15 0 11 42
50 48 44 2 -2 -4 -15 -13 -29z m-2245 14 c0 -5 -2 -10 -4 -10 -3 0 -8 5 -11
10 -3 6 -1 10 4 10 6 0 11 -4 11 -10z m2298 -95 c-36 -70 -57 -89 -31 -27 15
37 50 92 59 92 2 0 -10 -29 -28 -65z m-109 36 c7 -5 10 -14 7 -20 -4 -6 -12
-9 -17 -6 -5 3 -6 -1 -3 -9 7 -19 3 -20 -30 -5 -27 12 -27 32 0 22 8 -3 14 -2
13 3 -4 25 6 30 30 15z m-2419 -11 c0 -5 -4 -10 -10 -10 -5 0 -10 5 -10 10 0
6 5 10 10 10 6 0 10 -4 10 -10z m2576 -75 c-20 -47 -35 -72 -36 -59 0 14 25
76 36 87 14 14 14 7 0 -28z m-2556 4 c0 -6 -4 -7 -10 -4 -5 3 -10 11 -10 16 0
6 5 7 10 4 6 -3 10 -11 10 -16z m2520 -94 c0 -8 -4 -15 -10 -15 -5 0 -7 7 -4
15 4 8 8 15 10 15 2 0 4 -7 4 -15z m-2610 -88 c-12 -17 -20 -27 -17 -22 21 54
32 74 35 65 2 -6 -6 -25 -18 -43z m120 0 c0 -2 -10 -12 -22 -23 l-23 -19 19
23 c18 21 26 27 26 19z m-230 -17 c0 -5 -2 -10 -4 -10 -3 0 -8 5 -11 10 -3 6
-1 10 4 10 6 0 11 -4 11 -10z m2820 -31 c-7 -11 -14 -18 -17 -15 -3 3 0 12 7
21 18 21 23 19 10 -6z m-2726 -4 c-4 -9 -16 -21 -28 -27 -19 -10 -18 -8 4 15
29 31 31 32 24 12z m46 11 c0 -3 -4 -8 -10 -11 -5 -3 -10 -1 -10 4 0 6 5 11
10 11 6 0 10 -2 10 -4z m229 1 c-2 -2 -28 -25 -57 -52 -29 -27 -50 -41 -46
-31 6 15 90 86 102 86 3 0 3 -1 1 -3z m-186 -44 c-22 -21 -52 -57 -66 -80 -34
-54 -57 -68 -26 -16 31 52 67 94 99 115 39 26 37 21 -7 -19z m107 33 c0 -2 -8
-10 -17 -17 -16 -13 -17 -12 -4 4 13 16 21 21 21 13z m-321 -48 c-13 -11 -31
-25 -39 -32 -36 -29 -40 -26 -13 12 15 22 31 38 35 36 4 -3 13 2 20 10 8 9 14
10 17 3 2 -6 -7 -19 -20 -29z m-52 -82 c-17 -25 -40 -57 -50 -71 -11 -15 -22
-24 -25 -20 -4 3 -2 9 4 13 5 4 18 21 28 37 17 28 66 85 73 85 1 0 -12 -20
-30 -44z m157 29 c-4 -8 -10 -12 -15 -9 -11 6 -2 24 11 24 5 0 7 -7 4 -15z
m-224 1 c0 -11 -19 -15 -25 -6 -3 5 1 10 9 10 9 0 16 -2 16 -4z m-51 -47 c-24
-15 -29 -10 -11 11 10 12 18 16 21 9 2 -6 -3 -15 -10 -20z m258 -1 c-3 -8 -6
-5 -6 6 -1 11 2 17 5 13 3 -3 4 -12 1 -19z m2913 12 c0 -5 -7 -7 -15 -4 -8 4
-15 8 -15 10 0 2 7 4 15 4 8 0 15 -4 15 -10z m83 -32 c21 -8 27 -16 27 -40 0
-18 -4 -27 -11 -23 -6 4 -8 9 -5 12 7 7 -29 40 -53 48 -12 3 -21 11 -21 17 0
6 8 7 18 3 9 -4 29 -12 45 -17z m-2630 -8 c-3 -11 -10 -23 -16 -27 -5 -3 -8
-2 -5 3 3 5 8 17 11 27 9 24 16 22 10 -3z m-563 6 c0 -3 -4 -8 -10 -11 -5 -3
-10 -1 -10 4 0 6 5 11 10 11 6 0 10 -2 10 -4z m-30 -10 c0 -3 -4 -8 -10 -11
-5 -3 -10 -1 -10 4 0 6 5 11 10 11 6 0 10 -2 10 -4z m3209 -36 c5 -16 8 -30 6
-30 -2 0 -13 14 -25 30 -17 23 -18 30 -7 30 8 0 20 -13 26 -30z m68 -2 c-3 -7
-5 -2 -5 12 0 14 2 19 5 13 2 -7 2 -19 0 -25z m-20 -60 c-3 -7 -5 -2 -5 12 0
14 2 19 5 13 2 -7 2 -19 0 -25z m-3365 -140 c-7 -7 -12 -8 -12 -2 0 14 12 26
19 19 2 -3 -1 -11 -7 -17z m1204 9 c8 3 14 1 14 -5 0 -8 -22 -22 -36 -22 -2 0
-4 10 -3 23 0 12 3 17 5 10 3 -7 12 -9 20 -6z m2244 -44 c-11 -17 -11 -17 -6
0 3 10 6 24 7 30 0 9 2 9 5 0 3 -7 0 -20 -6 -30z m-1702 -63 c6 0 12 -4 12
-10 0 -16 -49 11 -55 32 -4 10 -11 18 -16 18 -5 0 -9 6 -9 13 0 6 13 -3 28
-21 15 -18 33 -32 40 -32z m1772 25 c16 -17 19 -25 9 -25 -8 0 -19 11 -26 25
-14 31 -12 31 17 0z m-1660 -15 c-6 -12 -14 -20 -17 -17 -2 3 1 14 8 26 17 26
24 19 9 -9z m-1890 4 c0 -8 -5 -12 -10 -9 -6 4 -8 11 -5 16 9 14 15 11 15 -7z
m537 -5 c-9 -6 -15 -14 -12 -20 4 -5 -1 -9 -9 -9 -17 0 -17 20 -1 32 6 4 17 8
25 8 12 -1 11 -3 -3 -11z m1369 -31 c-18 -26 -22 -17 -5 14 6 11 13 17 16 15
3 -3 -2 -16 -11 -29z m-1432 1 c-3 -5 -19 -9 -35 -9 -39 0 -30 15 10 16 17 1
28 -3 25 -7z m1386 7 c0 -3 -4 -8 -10 -11 -5 -3 -10 -1 -10 4 0 6 5 11 10 11
6 0 10 -2 10 -4z m-1465 -16 c-3 -5 -14 -10 -23 -10 -15 0 -15 2 -2 10 20 13
33 13 25 0z m1823 -69 c2 -23 -2 -31 -14 -31 -11 0 -14 5 -10 16 3 9 6 25 6
35 0 32 15 14 18 -20z m-2294 12 c3 -10 9 -25 12 -33 4 -8 -3 -3 -15 12 -23
28 -26 38 -12 38 5 0 11 -8 15 -17z m-44 -61 c-13 -27 -18 -51 -14 -67 4 -15
2 -25 -4 -25 -6 0 -13 -8 -16 -17 -3 -10 -2 2 1 27 5 42 41 135 49 127 2 -2
-5 -22 -16 -45z m2481 -25 c-10 -9 -11 -8 -5 6 3 10 9 15 12 12 3 -3 0 -11 -7
-18z m1356 1 c29 -13 53 -29 53 -35 0 -16 -8 -16 -51 -2 -36 13 -69 36 -69 51
0 12 10 10 67 -14z m-3407 8 c0 -3 -4 -8 -10 -11 -5 -3 -10 -1 -10 4 0 6 5 11
10 11 6 0 10 -2 10 -4z m2117 -22 c-3 -3 -12 -4 -19 -1 -8 3 -5 6 6 6 11 1 17
-2 13 -5z m1303 -44 c0 -12 -8 -12 -35 0 -18 8 -17 9 8 9 15 1 27 -3 27 -9z
m-3850 -55 c0 -5 -5 -3 -10 5 -5 8 -10 20 -10 25 0 6 5 3 10 -5 5 -8 10 -19
10 -25z m2635 25 c3 -5 1 -10 -4 -10 -6 0 -11 5 -11 10 0 6 2 10 4 10 3 0 8
-4 11 -10z m-2626 -80 c5 0 7 10 3 22 -3 14 -2 19 6 14 7 -4 12 -12 12 -18 0
-14 -41 -70 -48 -64 -2 3 1 12 7 20 16 19 -6 57 -27 48 -12 -4 -12 -1 -2 18
l12 23 14 -31 c7 -18 17 -32 23 -32z m2674 13 c-7 -2 -19 -2 -25 0 -7 3 -2 5
12 5 14 0 19 -2 13 -5z m-98 -93 c-3 -5 1 -10 9 -10 9 0 16 5 16 10 0 6 4 10
8 10 13 0 11 -34 -2 -43 -8 -6 -7 -10 2 -14 16 -6 15 -21 -2 -39 -18 -18 -30
-18 -23 0 3 7 0 19 -6 25 -8 8 -8 11 1 11 7 0 12 5 12 10 0 6 -9 10 -19 10
-14 0 -19 6 -18 20 1 11 7 20 15 20 7 0 10 -4 7 -10z m84 -24 c8 -10 9 -16 1
-21 -13 -8 -30 3 -30 21 0 18 14 18 29 0z m196 -6 c3 -5 1 -10 -4 -10 -6 0
-11 5 -11 10 0 6 2 10 4 10 3 0 8 -4 11 -10z m1009 -15 c3 -8 1 -15 -4 -15 -6
0 -10 7 -10 15 0 8 2 15 4 15 2 0 6 -7 10 -15z m-1334 -77 c0 -5 -7 -8 -15 -8
-15 0 -20 21 -8 33 7 7 23 -11 23 -25z m-2553 0 c-3 -8 -6 -5 -6 6 -1 11 2 17
5 13 3 -3 4 -12 1 -19z m2603 8 c0 -3 -4 -8 -10 -11 -5 -3 -10 -1 -10 4 0 6 5
11 10 11 6 0 10 -2 10 -4z m70 -26 c0 -12 -8 -12 -35 0 -18 8 -17 9 8 9 15 1
27 -3 27 -9z m-2709 -30 c-7 -4 -11 -11 -10 -16 3 -19 -1 -34 -12 -34 -6 0 -7
5 -2 13 4 6 8 17 9 22 0 6 2 16 2 23 1 7 7 10 13 6 8 -5 8 -8 0 -14z m2609 10
c0 -5 -7 -7 -15 -4 -8 4 -15 8 -15 10 0 2 7 4 15 4 8 0 15 -4 15 -10z m-2690
-45 c0 -5 -5 -3 -10 5 -5 8 -10 20 -10 25 0 6 5 3 10 -5 5 -8 10 -19 10 -25z
m2660 -25 c0 -5 -4 -10 -9 -10 -6 0 -13 5 -16 10 -3 6 1 10 9 10 9 0 16 -4 16
-10z m545 0 c-3 -5 -12 -10 -18 -10 -7 0 -6 4 3 10 19 12 23 12 15 0z m-3150
-20 c3 -5 1 -10 -4 -10 -6 0 -11 5 -11 10 0 6 2 10 4 10 3 0 8 -4 11 -10z
m296 -86 c-11 -32 -20 -52 -20 -43 -1 19 30 112 35 106 2 -2 -5 -30 -15 -63z
m-44 14 c-3 -8 -6 -5 -6 6 -1 11 2 17 5 13 3 -3 4 -12 1 -19z m2267 1 c-3 -5
-10 -7 -15 -3 -5 3 -7 10 -3 15 3 5 10 7 15 3 5 -3 7 -10 3 -15z m56 12 c0 -6
-9 -9 -20 -8 -11 1 -20 5 -20 9 0 4 9 8 20 8 11 0 20 -4 20 -9z m130 -10 c0
-8 -79 -3 -89 5 -2 2 17 4 42 4 26 0 47 -4 47 -9z m-100 -21 c0 -5 -4 -10 -10
-10 -5 0 -10 5 -10 10 0 6 5 10 10 10 6 0 10 -4 10 -10z m7 -82 c-3 -7 -5 -2
-5 12 0 14 2 19 5 13 2 -7 2 -19 0 -25z m-2327 18 c0 -3 -4 -8 -10 -11 -5 -3
-10 -1 -10 4 0 6 5 11 10 11 6 0 10 -2 10 -4z m-364 -53 c-10 -10 -19 5 -10
18 6 11 8 11 12 0 2 -7 1 -15 -2 -18z m2687 -3 c3 -11 1 -20 -4 -20 -5 0 -9 9
-9 20 0 11 2 20 4 20 2 0 6 -9 9 -20z m-2315 -14 c-7 -8 -15 -12 -17 -11 -5 6
10 25 20 25 5 0 4 -6 -3 -14z m2409 -12 c-3 -3 -12 -4 -19 -1 -8 3 -5 6 6 6
11 1 17 -2 13 -5z m-2417 -24 c0 -5 -2 -10 -4 -10 -3 0 -8 5 -11 10 -3 6 -1
10 4 10 6 0 11 -4 11 -10z m2415 0 c3 -5 -1 -10 -9 -10 -8 0 -18 5 -21 10 -3
6 1 10 9 10 8 0 18 -4 21 -10z m-45 -10 c0 -5 -7 -10 -15 -10 -8 0 -15 5 -15
10 0 6 7 10 15 10 8 0 15 -4 15 -10z m-56 -35 c-4 -8 -10 -12 -15 -9 -11 6 -2
24 11 24 5 0 7 -7 4 -15z m651 -3 c-3 -3 -11 0 -18 7 -9 10 -8 11 6 5 10 -3
15 -9 12 -12z m-595 -6 c0 -3 -4 -8 -10 -11 -5 -3 -10 -1 -10 4 0 6 5 11 10
11 6 0 10 -2 10 -4z m-90 -15 c0 -6 -4 -13 -10 -16 -5 -3 -10 1 -10 9 0 9 5
16 10 16 6 0 10 -4 10 -9z m-2293 -23 c-3 -8 -6 -5 -6 6 -1 11 2 17 5 13 3 -3
4 -12 1 -19z m2353 8 c0 -11 -19 -15 -25 -6 -3 5 1 10 9 10 9 0 16 -2 16 -4z
m605 -36 c3 -5 1 -10 -4 -10 -6 0 -11 5 -11 10 0 6 2 10 4 10 3 0 8 -4 11 -10z
m80 -8 c-3 -3 -11 0 -18 7 -9 10 -8 11 6 5 10 -3 15 -9 12 -12z m-875 -37 c0
-8 -2 -15 -4 -15 -2 0 -12 -3 -21 -7 -15 -5 -16 -3 -6 15 13 25 31 29 31 7z
m820 -1 c0 -8 -4 -12 -10 -9 -5 3 -10 10 -10 16 0 5 5 9 10 9 6 0 10 -7 10
-16z m40 -9 c7 -8 9 -15 6 -15 -4 0 -14 7 -22 15 -9 8 -11 15 -6 15 5 0 15 -7
22 -15z m-856 -30 c-7 -16 -24 -21 -24 -6 0 8 7 13 27 20 1 1 0 -6 -3 -14z
m833 -16 c-5 -20 17 -58 28 -47 4 4 3 21 -3 37 -7 19 -7 31 -1 31 5 0 9 -9 9
-19 0 -11 5 -23 10 -26 7 -4 8 -11 2 -18 -5 -7 -8 -24 -6 -40 1 -15 -3 -33
-10 -39 -7 -7 -11 -20 -8 -30 2 -10 0 -18 -6 -18 -5 0 -12 13 -15 28 -5 27
-57 74 -57 53 0 -6 6 -14 13 -18 6 -4 19 -17 27 -28 14 -18 13 -18 -15 2 -16
11 -38 30 -48 40 -17 19 -16 20 19 18 22 0 39 -7 45 -18 6 -9 19 -17 30 -17
16 0 19 4 13 22 -7 23 -28 48 -39 48 -4 0 -4 -7 -1 -16 3 -9 2 -12 -5 -9 -6 4
-8 14 -5 22 4 9 1 22 -5 29 -10 12 -8 13 6 8 15 -6 17 -3 13 14 -4 13 -2 20 4
16 5 -3 8 -15 5 -25z m-802 11 c3 -5 1 -10 -4 -10 -6 0 -11 5 -11 10 0 6 2 10
4 10 3 0 8 -4 11 -10z m915 -9 c0 -3 -12 -11 -26 -18 -22 -10 -25 -10 -20 3 3
9 6 19 6 24 0 4 9 6 20 3 11 -3 20 -8 20 -12z m-265 -1 c3 -5 1 -10 -4 -10 -6
0 -11 5 -11 10 0 6 2 10 4 10 3 0 8 -4 11 -10z m71 -127 c-3 -7 1 -10 8 -7 7
3 13 -2 13 -10 0 -11 -5 -13 -19 -5 -10 5 -18 14 -18 20 0 6 -10 20 -22 31
l-23 19 33 -18 c18 -9 30 -23 28 -30z m164 5 c0 -34 -15 -25 -17 10 -1 26 1
32 7 22 6 -8 10 -23 10 -32z m83 -12 c4 -11 1 -13 -10 -9 -13 5 -15 2 -9 -13
5 -14 4 -16 -4 -8 -11 11 -4 44 10 44 4 0 10 -7 13 -14z m-45 -86 c0 -20 -2
-26 -5 -15 -3 11 -9 25 -14 31 -5 6 -6 26 -2 45 l7 34 7 -30 c4 -16 7 -46 7
-65z m-138 50 c0 -5 -2 -10 -4 -10 -3 0 -8 5 -11 10 -3 6 -1 10 4 10 6 0 11
-4 11 -10z m87 -22 c-3 -8 -6 -5 -6 6 -1 11 2 17 5 13 3 -3 4 -12 1 -19z m116
-41 c-3 -5 -12 -2 -20 6 -9 8 -12 20 -8 27 5 8 11 6 20 -7 7 -10 11 -22 8 -26z
m-197 6 c-7 -7 -26 7 -26 19 0 6 6 6 15 -2 9 -7 13 -15 11 -17z m214 -37 c0
-3 -4 -8 -10 -11 -5 -3 -10 -1 -10 4 0 6 5 11 10 11 6 0 10 -2 10 -4z m-47
-25 c3 8 6 9 6 3 1 -6 -6 -17 -14 -24 -13 -10 -15 -9 -15 11 0 17 3 20 9 10 7
-11 9 -11 14 0z m-1280 -16 c-3 -9 -8 -14 -10 -11 -3 3 -2 9 2 15 9 16 15 13
8 -4z m1367 0 c0 -8 -2 -15 -4 -15 -2 0 -6 7 -10 15 -3 8 -1 15 4 15 6 0 10
-7 10 -15z m-40 -5 c0 -5 -2 -10 -4 -10 -3 0 -8 5 -11 10 -3 6 -1 10 4 10 6 0
11 -4 11 -10z m-807 -61 c-5 -18 -3 -20 18 -14 16 4 20 3 10 -3 -21 -15 5 -25
30 -12 11 7 23 9 27 6 3 -3 0 -6 -6 -6 -7 0 -12 -6 -12 -13 0 -15 -61 -20 -70
-6 -3 5 -30 5 -60 0 -60 -10 -65 -8 -79 17 -10 18 -3 21 57 23 12 1 22 5 22
11 0 5 9 6 20 3 11 -4 20 -2 20 4 0 6 6 11 14 11 9 0 12 -7 9 -21z m-153 -49
c0 -5 -2 -10 -4 -10 -3 0 -8 5 -11 10 -3 6 -1 10 4 10 6 0 11 -4 11 -10z m814
-25 c3 -8 1 -15 -4 -15 -6 0 -10 7 -10 15 0 8 2 15 4 15 2 0 6 -7 10 -15z
m746 -76 c0 -5 -4 -9 -10 -9 -5 0 -10 7 -10 16 0 8 5 12 10 9 6 -3 10 -10 10
-16z m-1496 -75 c16 -6 23 -54 8 -54 -14 0 -32 23 -32 42 0 20 1 21 24 12z
m-2484 -154 c-5 -22 -8 -27 -9 -13 -1 21 9 56 14 51 2 -2 0 -19 -5 -38z m3993
-145 c14 -38 29 -83 32 -100 5 -29 5 -29 -6 -5 -6 14 -24 52 -39 85 -31 68
-46 126 -26 103 7 -7 24 -44 39 -83z m-693 55 c0 -5 -5 -10 -11 -10 -5 0 -7 5
-4 10 3 6 8 10 11 10 2 0 4 -4 4 -10z m35 -188 c-7 -8 -35 7 -35 18 0 6 7 6
20 -2 10 -7 17 -14 15 -16z m8 -52 c7 -26 -8 -44 -29 -35 -18 7 -18 7 0 14 14
5 16 10 8 15 -7 4 -12 14 -12 21 0 20 27 8 33 -15z m361 -130 c-7 -35 -7 -35
-20 25 -20 93 -17 120 7 60 15 -35 18 -59 13 -85z m-394 36 c0 -3 -4 -8 -10
-11 -5 -3 -10 -1 -10 4 0 6 5 11 10 11 6 0 10 -2 10 -4z m-1470 -26 c0 -5 -4
-10 -10 -10 -5 0 -10 5 -10 10 0 6 5 10 10 10 6 0 10 -4 10 -10z m1421 -103
c-13 -13 -15 1 -4 30 7 17 8 17 11 -1 2 -10 -1 -23 -7 -29z m-1386 -15 c-8 -8
-25 10 -25 26 0 13 2 13 14 -4 8 -10 13 -21 11 -22z m1740 -101 c-9 -28 -19
-51 -21 -51 -6 0 6 49 19 82 19 45 20 23 2 -31z m182 -68 c-2 -12 0 -20 4 -17
5 3 9 -1 9 -9 0 -10 -7 -13 -20 -10 -15 4 -20 14 -20 38 0 19 3 41 7 51 5 15
8 14 15 -7 5 -13 7 -34 5 -46z m-200 -25 c-3 -8 -6 -5 -6 6 -1 11 2 17 5 13 3
-3 4 -12 1 -19z m-317 -18 c0 -5 -5 -10 -11 -10 -5 0 -7 5 -4 10 3 6 8 10 11
10 2 0 4 -4 4 -10z m5 -120 c3 -5 1 -10 -4 -10 -6 0 -11 5 -11 10 0 6 2 10 4
10 3 0 8 -4 11 -10z m-38 -182 c-3 -8 -6 -5 -6 6 -1 11 2 17 5 13 3 -3 4 -12
1 -19z m41 -64 c0 -18 -3 -22 -9 -13 -11 18 -11 39 0 39 5 0 9 -12 9 -26z
m-1463 6 c3 -5 1 -10 -4 -10 -6 0 -11 5 -11 10 0 6 2 10 4 10 3 0 8 -4 11 -10z
m-140 -220 c-3 -5 -11 -10 -16 -10 -6 0 -7 5 -4 10 3 6 11 10 16 10 6 0 7 -4
4 -10z m1555 -170 c0 -11 -4 -20 -9 -20 -5 0 -7 9 -4 20 3 11 7 20 9 20 2 0 4
-9 4 -20z m-1376 -11 c-6 -11 -24 -2 -24 11 0 5 7 7 15 4 8 -4 12 -10 9 -15z
m-417 -34 c0 -8 -6 -15 -12 -15 -6 0 -12 7 -12 15 0 8 6 15 12 15 6 0 12 -7
12 -15z m38 -15 c3 -5 2 -10 -4 -10 -5 0 -13 5 -16 10 -3 6 -2 10 4 10 5 0 13
-4 16 -10z m55 -24 c0 -2 -9 -2 -20 1 -11 3 -20 9 -20 15 0 5 9 4 20 -2 11 -6
20 -12 20 -14z m1680 -26 c0 -5 -4 -10 -10 -10 -5 0 -10 5 -10 10 0 6 5 10 10
10 6 0 10 -4 10 -10z m50 0 c0 -5 -4 -10 -10 -10 -5 0 -10 -7 -10 -15 0 -8 4
-15 9 -15 5 0 7 -9 4 -20 -6 -22 -18 -26 -29 -8 -5 7 -3 8 6 3 10 -6 11 -2 6
18 -3 14 -3 33 0 41 7 18 24 22 24 6z m-1744 -116 c26 -7 29 -12 14 -34 -9
-13 -12 -13 -21 3 -6 9 -14 15 -19 12 -5 -3 -14 4 -21 16 -10 19 -9 21 6 15 9
-3 28 -9 41 -12z m241 -133 c14 -23 5 -35 -14 -20 -10 9 -13 8 -13 -4 0 -10
-6 -13 -20 -10 -11 3 -20 10 -20 15 0 5 9 12 20 15 11 3 20 9 20 14 0 15 15
10 27 -10z m196 -161 c3 -12 0 -20 -8 -20 -8 0 -11 8 -8 20 3 11 7 20 8 20 1
0 5 -9 8 -20z m827 -218 c0 -15 -2 -15 -10 -2 -13 20 -13 33 0 25 6 -3 10 -14
10 -23z m-853 -18 c-3 -3 -12 -4 -19 -1 -8 3 -5 6 6 6 11 1 17 -2 13 -5z m828
-45 c0 -7 -9 -15 -20 -18 -16 -3 -17 -1 -7 11 6 8 8 18 4 23 -4 4 0 6 8 3 8
-3 15 -11 15 -19z m-815 -39 c0 -5 -7 -10 -16 -10 -8 0 -12 5 -9 10 3 6 10 10
16 10 5 0 9 -4 9 -10z m210 -10 c0 -5 -4 -10 -10 -10 -5 0 -10 5 -10 10 0 6 5
10 10 10 6 0 10 -4 10 -10z m505 -100 c-10 -11 -20 -18 -23 -15 -3 3 3 14 13
25 10 11 20 18 23 15 3 -3 -3 -14 -13 -25z m-643 -152 c-9 -9 -12 -7 -12 12 0
19 3 21 12 12 9 -9 9 -15 0 -24z m-127 -36 c-6 -7 -34 29 -34 43 0 6 9 -1 20
-14 11 -13 17 -26 14 -29z m-20 -22 c3 -5 1 -10 -4 -10 -6 0 -11 5 -11 10 0 6
2 10 4 10 3 0 8 -4 11 -10z m65 -20 c0 -5 -2 -10 -4 -10 -3 0 -8 5 -11 10 -3
6 -1 10 4 10 6 0 11 -4 11 -10z m220 -490 c0 -5 -4 -10 -10 -10 -5 0 -10 5
-10 10 0 6 5 10 10 10 6 0 10 -4 10 -10z m20 -29 c0 -6 -4 -13 -10 -16 -5 -3
-10 1 -10 9 0 9 5 16 10 16 6 0 10 -4 10 -9z m50 -60 c0 -6 -4 -13 -10 -16 -5
-3 -10 1 -10 9 0 9 5 16 10 16 6 0 10 -4 10 -9z m438 -253 c-3 -7 -13 -15 -24
-17 -16 -3 -17 -1 -5 13 16 19 34 21 29 4z m1502 -65 c-11 -17 -11 -17 -6 0 3
10 6 24 7 30 0 9 2 9 5 0 3 -7 0 -20 -6 -30z m-17 -43 c-3 -11 -10 -20 -15
-20 -6 0 -8 -7 -5 -15 4 -8 2 -17 -4 -21 -19 -11 -20 3 -3 40 19 39 35 49 27
16z m-1387 -47 c-10 -10 -19 5 -10 18 6 11 8 11 12 0 2 -7 1 -15 -2 -18z
m-429 -9 c-3 -3 -12 -4 -19 -1 -8 3 -5 6 6 6 11 1 17 -2 13 -5z m1753 -133 c0
-12 -20 -25 -27 -18 -7 7 6 27 18 27 5 0 9 -4 9 -9z m-1346 -45 c-5 -14 -34
-31 -34 -20 0 8 24 33 32 34 4 0 5 -6 2 -14z m1226 -108 c0 -4 -9 -8 -20 -8
-11 0 -20 4 -20 9 0 6 9 9 20 8 11 -1 20 -5 20 -9z m-50 -33 c0 -8 -61 -67
-65 -63 -9 8 35 68 50 68 8 0 15 -2 15 -5z m30 -25 c0 -5 -4 -10 -10 -10 -5 0
-10 5 -10 10 0 6 5 10 10 10 6 0 10 -4 10 -10z m-125 -50 c-3 -5 -11 -10 -16
-10 -6 0 -7 5 -4 10 3 6 11 10 16 10 6 0 7 -4 4 -10z m340 -10 c3 -5 2 -10 -4
-10 -5 0 -13 5 -16 10 -3 6 -2 10 4 10 5 0 13 -4 16 -10z m-350 -30 c9 7 18
10 22 6 11 -11 -5 -18 -49 -22 -24 -2 -44 -8 -46 -14 -2 -5 -10 -10 -17 -10
-8 0 -11 -8 -8 -22 4 -22 4 -22 -8 -4 -11 18 -7 24 31 59 43 37 44 38 52 17 7
-19 11 -20 23 -10z m300 -20 c3 -5 -1 -10 -9 -10 -9 0 -16 5 -16 10 0 6 4 10
9 10 6 0 13 -4 16 -10z m-240 -20 c3 -5 1 -10 -4 -10 -6 0 -11 5 -11 10 0 6 2
10 4 10 3 0 8 -4 11 -10z m200 -1 c11 -17 -1 -21 -15 -4 -8 9 -8 15 -2 15 6 0
14 -5 17 -11z m-276 -41 c-8 -13 -12 -27 -11 -31 1 -5 -7 -11 -18 -14 -11 -3
-17 -9 -14 -14 3 -5 1 -9 -4 -9 -15 0 -11 48 4 54 8 3 14 12 14 20 0 17 33 39
38 26 2 -5 -2 -19 -9 -32z m244 -14 c-31 -29 -29 -28 -37 -8 -4 11 -2 15 8 11
8 -3 16 2 19 14 3 12 11 17 21 13 12 -5 10 -10 -11 -30z m-203 4 c0 -13 -23
-5 -28 10 -2 7 2 10 12 6 9 -3 16 -11 16 -16z m300 8 c0 -3 -4 -8 -10 -11 -5
-3 -10 -1 -10 4 0 6 5 11 10 11 6 0 10 -2 10 -4z m-42 -31 c-3 -3 -9 2 -12 12
-6 14 -5 15 5 6 7 -7 10 -15 7 -18z m-453 -5 c-3 -5 -12 -10 -18 -10 -7 0 -6
4 3 10 19 12 23 12 15 0z m355 -11 c0 -5 6 -7 13 -3 8 5 8 2 -2 -9 -7 -9 -19
-17 -25 -17 -6 0 -4 5 4 10 22 14 -5 13 -33 -1 l-22 -12 20 21 c22 23 45 28
45 11z m70 7 c0 -3 -4 -8 -10 -11 -5 -3 -10 -1 -10 4 0 6 5 11 10 11 6 0 10
-2 10 -4z m-520 -26 c0 -11 -7 -20 -15 -20 -18 0 -19 12 -3 28 16 16 18 15 18
-8z m83 4 c9 -4 17 -11 17 -16 0 -5 -4 -7 -9 -3 -5 3 -13 0 -17 -6 -3 -6 0
-15 7 -20 11 -7 10 -11 -6 -23 -11 -9 -24 -15 -30 -16 -5 0 -3 5 5 10 13 8 12
11 -6 16 -15 4 -20 11 -17 25 4 15 8 17 19 8 11 -9 14 -7 14 9 0 11 -5 23 -10
25 -10 5 -2 3 33 -9z m77 -14 c0 -5 -2 -10 -4 -10 -3 0 -8 5 -11 10 -3 6 -1
10 4 10 6 0 11 -4 11 -10z m230 -20 c0 -5 -7 -7 -15 -4 -8 4 -15 8 -15 10 0 2
7 4 15 4 8 0 15 -4 15 -10z m227 -6 c-3 -3 -12 -4 -19 -1 -8 3 -5 6 6 6 11 1
17 -2 13 -5z m-626 -14 c26 -14 24 -25 -4 -26 -16 -1 -23 4 -23 17 0 22 1 22
27 9z m380 -53 c-10 -9 -11 -8 -5 6 3 10 9 15 12 12 3 -3 0 -11 -7 -18z m186
-9 c-3 -7 -5 -2 -5 12 0 14 2 19 5 13 2 -7 2 -19 0 -25z m-587 12 c0 -5 -2
-10 -4 -10 -3 0 -8 5 -11 10 -3 6 -1 10 4 10 6 0 11 -4 11 -10z m307 -6 c-3
-3 -12 -4 -19 -1 -8 3 -5 6 6 6 11 1 17 -2 13 -5z"/>
<path d="M6747 7253 c-4 -3 -7 -11 -7 -17 0 -6 5 -5 12 2 6 6 9 14 7 17 -3 3
-9 2 -12 -2z"/>
<path d="M6320 4784 c0 -8 5 -12 10 -9 6 4 8 11 5 16 -9 14 -15 11 -15 -7z"/>
<path d="M5864 7668 l-29 -33 33 29 c30 28 37 36 29 36 -2 0 -16 -15 -33 -32z"/>
<path d="M5081 7664 c0 -11 3 -14 6 -6 3 7 2 16 -1 19 -3 4 -6 -2 -5 -13z"/>
<path d="M5082 7620 c0 -14 2 -19 5 -12 2 6 2 18 0 25 -3 6 -5 1 -5 -13z"/>
<path d="M6320 7615 c-13 -14 -21 -27 -18 -31 3 -3 16 9 28 25 26 37 22 40
-10 6z"/>
<path d="M6115 7560 c-3 -5 -2 -10 4 -10 5 0 13 5 16 10 3 6 2 10 -4 10 -5 0
-13 -4 -16 -10z"/>
<path d="M6178 7563 c7 -3 16 -2 19 1 4 3 -2 6 -13 5 -11 0 -14 -3 -6 -6z"/>
<path d="M6449 7553 c-13 -16 -12 -17 4 -4 16 13 21 21 13 21 -2 0 -10 -8 -17
-17z"/>
<path d="M4575 7430 c-3 -5 1 -10 9 -10 9 0 16 5 16 10 0 6 -4 10 -9 10 -6 0
-13 -4 -16 -10z"/>
<path d="M6699 7413 c-13 -16 -12 -17 4 -4 9 7 17 15 17 17 0 8 -8 3 -21 -13z"/>
<path d="M7065 7170 c-9 -16 -13 -30 -11 -30 3 0 12 14 21 30 9 17 13 30 11
30 -3 0 -12 -13 -21 -30z"/>
<path d="M7159 6786 c9 -11 9 -15 -1 -19 -7 -2 2 -4 19 -3 41 1 42 11 2 25
-26 9 -29 9 -20 -3z"/>
<path d="M3915 6696 c-3 -9 -7 -23 -10 -31 -2 -8 -1 -15 4 -15 5 0 11 12 14
28 6 30 0 44 -8 18z"/>
<path d="M3902 6605 c0 -16 2 -22 5 -12 2 9 2 23 0 30 -3 6 -5 -1 -5 -18z"/>
<path d="M3891 6514 c0 -11 3 -14 6 -6 3 7 2 16 -1 19 -3 4 -6 -2 -5 -13z"/>
<path d="M7470 6430 c0 -5 5 -10 11 -10 5 0 7 5 4 10 -3 6 -8 10 -11 10 -2 0
-4 -4 -4 -10z"/>
<path d="M7487 6389 c7 -7 15 -10 18 -7 3 3 -2 9 -12 12 -14 6 -15 5 -6 -5z"/>
<path d="M4508 6333 c-10 -2 -18 -9 -18 -14 0 -6 8 -5 20 1 11 6 20 13 20 15
0 3 -1 4 -2 4 -2 -1 -11 -3 -20 -6z"/>
<path d="M7635 6217 c8 -19 43 -38 50 -27 3 5 -8 16 -24 25 -22 11 -29 12 -26
2z"/>
<path d="M5970 6189 c0 -5 5 -7 10 -4 6 3 10 8 10 11 0 2 -4 4 -10 4 -5 0 -10
-5 -10 -11z"/>
<path d="M5765 6163 c29 -27 96 -63 118 -63 11 0 -42 32 -100 62 -13 6 -23 15
-23 20 0 4 -6 8 -12 8 -7 0 1 -12 17 -27z"/>
<path d="M5976 6171 l-28 -6 30 -11 c25 -9 32 -9 36 2 7 18 -3 22 -38 15z"/>
<path d="M6045 6161 c-3 -11 -15 -23 -26 -26 -10 -4 -19 -10 -19 -15 0 -5 -8
-11 -17 -13 -10 -3 3 -2 30 0 39 5 47 3 47 -11 0 -9 4 -16 10 -16 6 0 6 10 -1
27 -5 15 -8 38 -4 50 7 28 -11 31 -20 4z"/>
<path d="M4186 6092 c-2 -4 -1 -14 5 -22 7 -12 9 -10 9 8 0 23 -5 28 -14 14z"/>
<path d="M5750 6079 c0 -5 5 -7 10 -4 6 3 10 8 10 11 0 2 -4 4 -10 4 -5 0 -10
-5 -10 -11z"/>
<path d="M6150 6069 c0 -5 5 -7 10 -4 6 3 10 8 10 11 0 2 -4 4 -10 4 -5 0 -10
-5 -10 -11z"/>
<path d="M4170 6039 c0 -5 5 -7 10 -4 6 3 10 8 10 11 0 2 -4 4 -10 4 -5 0 -10
-5 -10 -11z"/>
<path d="M6304 6024 c3 -9 6 -21 7 -27 0 -7 4 -3 9 8 13 29 12 35 -6 35 -11 0
-14 -5 -10 -16z"/>
<path d="M7687 5999 c7 -7 15 -10 18 -7 3 3 -2 9 -12 12 -14 6 -15 5 -6 -5z"/>
<path d="M7705 5970 c3 -5 16 -10 28 -10 18 0 19 2 7 10 -20 13 -43 13 -35 0z"/>
<path d="M6255 5960 c-3 -5 -1 -10 4 -10 6 0 11 5 11 10 0 6 -2 10 -4 10 -3 0
-8 -4 -11 -10z"/>
<path d="M6230 5895 c0 -8 5 -15 10 -15 6 0 10 7 10 15 0 8 -4 15 -10 15 -5 0
-10 -7 -10 -15z"/>
<path d="M6200 5891 c0 -5 5 -13 10 -16 6 -3 10 -2 10 4 0 5 -4 13 -10 16 -5
3 -10 2 -10 -4z"/>
<path d="M6275 5880 c-3 -5 -1 -10 4 -10 6 0 11 5 11 10 0 6 -2 10 -4 10 -3 0
-8 -4 -11 -10z"/>
<path d="M6085 5860 c-3 -5 -1 -10 4 -10 6 0 11 5 11 10 0 6 -2 10 -4 10 -3 0
-8 -4 -11 -10z"/>
<path d="M6251 5854 c0 -11 3 -14 6 -6 3 7 2 16 -1 19 -3 4 -6 -2 -5 -13z"/>
<path d="M6205 5680 c3 -5 -7 -8 -25 -5 -17 2 -28 0 -25 -5 3 -4 -1 -11 -7
-14 -10 -5 -10 -7 0 -12 17 -8 15 -22 -5 -26 -14 -3 -13 -5 6 -10 21 -6 23 -4
17 23 -5 29 10 42 20 16 9 -26 34 -15 34 15 0 15 -5 28 -11 28 -5 0 -8 -4 -4
-10z"/>
<path d="M6060 5657 c0 -10 8 -17 18 -17 9 0 13 4 7 8 -5 4 -13 11 -17 16 -5
5 -8 2 -8 -7z"/>
<path d="M5230 5630 c0 -5 5 -10 10 -10 6 0 10 5 10 10 0 6 -4 10 -10 10 -5 0
-10 -4 -10 -10z"/>
<path d="M6080 5578 c0 -9 -7 -18 -15 -22 -16 -6 -21 -26 -7 -26 12 0 37 49
29 57 -4 3 -7 -1 -7 -9z"/>
<path d="M6120 5560 c0 -5 5 -10 10 -10 6 0 10 5 10 10 0 6 -4 10 -10 10 -5 0
-10 -4 -10 -10z"/>
<path d="M6090 5530 c20 -13 33 -13 25 0 -3 6 -14 10 -23 10 -15 0 -15 -2 -2
-10z"/>
<path d="M6146 5441 c-12 -5 -15 -10 -9 -14 6 -4 16 0 23 8 14 17 13 17 -14 6z"/>
<path d="M6117 5380 c10 -11 21 -20 25 -20 5 0 8 9 8 20 0 15 -7 20 -25 20
-24 0 -24 -1 -8 -20z"/>
<path d="M6185 5363 c-17 -12 -16 -13 15 -7 43 8 46 10 22 16 -10 3 -27 -1
-37 -9z"/>
<path d="M6100 5360 c0 -5 5 -10 11 -10 5 0 7 5 4 10 -3 6 -8 10 -11 10 -2 0
-4 -4 -4 -10z"/>
<path d="M6015 5180 c-3 -6 1 -7 9 -4 18 7 21 14 7 14 -6 0 -13 -4 -16 -10z"/>
<path d="M4635 5143 c-22 -8 -55 -19 -73 -23 -27 -7 -31 -6 -22 5 9 11 7 12
-9 8 -12 -3 -21 -10 -21 -17 0 -6 -4 -5 -9 3 -8 12 -12 12 -25 2 -9 -7 -14
-16 -11 -20 5 -9 -32 -7 -41 1 -3 4 8 14 25 23 31 15 39 25 23 25 -5 0 -37
-18 -72 -41 -37 -23 -60 -34 -57 -25 11 28 -25 -2 -67 -56 -21 -27 -49 -53
-62 -58 -24 -10 -66 -67 -96 -134 -15 -31 -15 -37 -3 -33 12 5 12 1 4 -21 -6
-14 -15 -32 -21 -39 -8 -10 -4 -11 20 -2 17 6 33 17 36 25 3 8 12 14 19 14 8
0 27 10 43 22 33 26 85 31 131 11 41 -16 43 -16 43 2 0 9 -9 15 -22 15 -13 0
-30 4 -37 9 -10 6 0 8 29 4 31 -4 41 -3 36 5 -7 12 18 6 39 -8 6 -4 26 -10 45
-13 33 -6 34 -6 15 8 -11 9 -25 13 -32 11 -20 -8 -15 8 7 21 16 10 18 10 14
-1 -4 -10 6 -15 33 -18 48 -6 57 0 14 8 -23 5 -29 9 -19 15 11 7 10 11 -2 20
-15 11 7 9 70 -7 20 -5 22 -4 10 6 -12 9 -8 10 20 6 137 -20 230 -42 230 -54
0 -4 9 -8 20 -8 18 0 18 1 2 20 -16 18 -16 19 0 13 9 -3 33 -9 52 -13 20 -3
36 -11 36 -18 0 -6 4 -4 10 4 10 16 -6 43 -21 34 -5 -3 -6 2 -3 10 5 13 14 10
47 -17 23 -17 38 -26 33 -19 -6 10 -3 13 10 12 43 -5 48 -1 28 21 -10 12 -28
25 -39 30 -19 7 -19 8 1 8 12 1 25 -6 28 -15 4 -9 13 -14 22 -10 8 3 13 2 12
-2 -2 -4 9 -19 24 -34 19 -18 28 -22 28 -12 0 8 -7 17 -15 20 -8 4 -15 12 -15
20 0 8 -9 23 -20 34 -24 24 -18 26 15 4 20 -13 25 -14 25 -3 1 8 8 2 16 -13
21 -40 27 -35 7 6 -9 19 -19 34 -22 33 -8 -2 -51 36 -51 46 0 4 9 3 20 -3 11
-6 20 -8 20 -4 0 3 9 -4 19 -17 l19 -24 -5 27 c-3 17 -15 31 -32 38 -23 9 -23
10 -3 6 29 -6 24 0 -25 30 -24 15 -32 23 -20 24 24 0 22 20 -3 20 -11 0 -20
-3 -20 -8 0 -4 -27 -7 -60 -7 -33 0 -60 3 -60 7 0 4 -17 4 -37 1 -35 -6 -37
-5 -24 10 12 15 11 17 -10 17 -19 0 -21 2 -9 10 22 14 3 12 -33 -3 -18 -8 -47
-19 -65 -25 -28 -9 -32 -9 -22 3 9 11 5 15 -23 20 -20 4 -46 4 -59 0 -17 -5
-15 -1 10 14 17 11 32 23 32 26 0 3 -1 4 -2 4 -2 -1 -21 -8 -43 -16z m360
-243 c27 -30 12 -34 -15 -5 -13 14 -19 25 -13 25 5 0 18 -9 28 -20z m-710 -60
c3 -5 2 -10 -4 -10 -5 0 -13 5 -16 10 -3 6 -2 10 4 10 5 0 13 -4 16 -10z
m-121 -45 c-10 -8 -23 -14 -29 -14 -5 -1 1 8 15 19 14 10 27 17 29 14 3 -2 -4
-11 -15 -19z"/>
<path d="M5895 5130 c-3 -5 -1 -10 4 -10 6 0 11 5 11 10 0 6 -2 10 -4 10 -3 0
-8 -4 -11 -10z"/>
<path d="M7010 4950 c0 -5 5 -10 10 -10 6 0 10 5 10 10 0 6 -4 10 -10 10 -5 0
-10 -4 -10 -10z"/>
<path d="M5170 4945 c0 -5 5 -17 10 -25 5 -8 10 -10 10 -5 0 6 -5 17 -10 25
-5 8 -10 11 -10 5z"/>
<path d="M7071 4813 c0 -4 4 -17 9 -28 8 -19 9 -19 9 2 1 12 -3 25 -9 28 -5 3
-10 3 -9 -2z"/>
<path d="M4230 4790 c-8 -5 -10 -10 -5 -10 6 0 17 5 25 10 8 5 11 10 5 10 -5
0 -17 -5 -25 -10z"/>
<path d="M4175 4770 c-13 -6 -15 -9 -5 -9 8 0 22 4 30 9 18 12 2 12 -25 0z"/>
<path d="M4224 4761 c3 -5 15 -7 26 -4 28 7 25 13 -6 13 -14 0 -23 -4 -20 -9z"/>
<path d="M7128 4753 c7 -12 9 -29 5 -39 -4 -12 -3 -15 5 -10 17 10 15 41 -5
57 -15 13 -15 12 -5 -8z"/>
<path d="M4810 4750 c0 -6 -4 -9 -8 -6 -4 3 -26 0 -48 -5 -21 -6 -64 -12 -94
-15 -173 -15 -298 -82 -388 -208 -52 -73 -12 -55 43 19 45 59 77 85 100 79 14
-4 16 -3 7 4 -11 7 -6 12 17 20 27 10 32 8 42 -10 10 -19 9 -20 -15 -16 -19 4
-26 1 -26 -10 0 -10 -7 -13 -25 -10 -27 6 -32 -1 -15 -18 12 -12 -36 -74 -56
-74 -7 0 -14 -7 -18 -15 -3 -8 -16 -15 -28 -16 -13 0 -17 -3 -10 -6 9 -3 3
-12 -17 -24 -17 -10 -31 -23 -31 -29 0 -5 0 -13 0 -17 0 -11 34 -10 42 2 5 6
11 6 19 -2 9 -9 17 -8 36 4 21 14 23 14 17 -1 -3 -9 -2 -16 4 -16 5 0 12 7 16
15 3 8 11 15 18 15 10 0 10 -2 -1 -9 -9 -6 -10 -10 -2 -16 7 -4 18 -1 26 5 18
15 36 4 28 -18 -6 -16 -5 -16 14 1 26 23 36 22 23 -2 -18 -34 -11 -41 16 -16
26 24 72 35 59 15 -3 -5 -1 -10 4 -10 6 0 11 10 11 23 0 18 2 19 10 7 5 -8 7
-23 4 -32 -3 -10 -1 -18 5 -18 6 0 11 5 11 10 0 15 56 12 69 -3 6 -8 7 -18 3
-22 -4 -5 1 -5 11 -2 10 4 21 7 23 7 3 0 2 5 -1 10 -3 6 -2 10 3 10 6 0 13 -7
16 -16 3 -8 10 -13 15 -10 5 3 12 -1 15 -10 10 -25 7 -34 -9 -34 -8 0 -15 -7
-15 -15 0 -9 6 -12 15 -9 13 6 20 -6 16 -28 0 -5 15 -6 35 -3 31 4 37 1 42
-17 5 -21 6 -21 12 -2 4 10 3 25 -2 31 -8 9 2 9 38 -2 47 -14 71 -12 45 4 -9
6 -10 11 -2 15 6 4 11 2 11 -3 0 -6 7 -11 16 -11 8 0 12 5 9 10 -3 6 1 10 9
10 9 0 16 4 16 10 0 5 7 7 15 4 10 -4 15 0 15 11 0 11 5 15 15 11 8 -3 15 -1
15 3 0 5 -6 12 -12 14 -8 4 -6 6 5 7 9 2 23 3 30 4 6 1 11 9 9 19 -2 11 2 15
13 11 10 -4 15 0 15 10 0 9 6 16 13 16 8 0 7 4 -3 10 -12 8 -10 10 8 10 16 0
23 5 21 18 -3 33 1 42 21 42 19 0 19 1 2 18 -10 10 -27 22 -36 25 -15 6 -16
10 -6 22 7 9 10 18 7 22 -4 3 -2 14 3 23 8 14 3 22 -25 41 -19 13 -33 29 -30
36 7 19 -17 28 -29 11 -13 -18 -37 -12 -29 8 3 7 9 12 13 9 4 -3 10 1 13 9 7
18 -20 29 -30 12 -10 -17 -41 -27 -48 -17 -3 5 3 12 12 15 13 5 14 9 4 19 -9
9 -13 9 -19 0 -11 -18 -58 -21 -54 -4 4 18 -16 40 -36 39 -9 0 -29 3 -44 7
-19 5 -28 3 -28 -5z m-222 -72 c-3 -7 -14 -17 -26 -23 -12 -5 -22 -13 -22 -18
0 -4 -9 -3 -20 3 -11 6 -20 8 -20 5 0 -4 -5 -3 -12 1 -8 5 2 14 27 26 47 21
78 23 73 6z m52 -144 c0 -32 -26 -31 -32 1 -6 29 -1 36 18 28 8 -3 14 -16 14
-29z m-120 -27 c0 -8 9 -22 20 -32 11 -10 20 -22 20 -28 0 -13 -51 1 -72 20
-15 14 -15 16 0 33 21 22 32 25 32 7z m-243 -93 c-3 -3 -12 -4 -19 -1 -8 3 -5
6 6 6 11 1 17 -2 13 -5z m363 -34 c12 -8 11 -10 -7 -10 -13 0 -23 5 -23 10 0
13 11 13 30 0z"/>
<path d="M4123 4728 c-30 -10 -54 -38 -33 -38 6 0 10 5 10 10 0 6 6 10 13 10
7 0 22 7 33 15 22 16 21 17 -23 3z"/>
<path d="M4176 4725 c4 -8 1 -15 -5 -15 -6 0 -11 -7 -11 -17 0 -13 4 -12 20 7
19 22 19 40 0 40 -5 0 -7 -7 -4 -15z"/>
<path d="M4095 4680 l-30 -8 32 -1 c17 0 35 4 38 9 7 11 3 11 -40 0z"/>
<path d="M7170 4658 c0 -7 5 -20 10 -28 8 -12 10 -9 10 13 0 15 -4 27 -10 27
-5 0 -10 -6 -10 -12z"/>
<path d="M7190 4591 c0 -6 5 -13 10 -16 6 -3 10 1 10 9 0 9 -4 16 -10 16 -5 0
-10 -4 -10 -9z"/>
<path d="M4245 4450 c-3 -6 1 -7 9 -4 18 7 21 14 7 14 -6 0 -13 -4 -16 -10z"/>
<path d="M7200 4430 c0 -5 5 -10 10 -10 6 0 10 5 10 10 0 6 -4 10 -10 10 -5 0
-10 -4 -10 -10z"/>
<path d="M3542 4408 c-13 -7 -26 -26 -31 -47 -19 -75 -33 -170 -26 -182 5 -6
9 -44 10 -84 2 -40 8 -88 14 -107 6 -18 16 -60 23 -93 l12 -60 11 145 c8 101
9 163 2 206 -10 55 -9 65 11 98 12 21 22 45 22 54 0 10 7 28 16 41 14 19 14
25 3 32 -18 11 -39 10 -67 -3z"/>
<path d="M5501 4384 c0 -11 3 -14 6 -6 3 7 2 16 -1 19 -3 4 -6 -2 -5 -13z"/>
<path d="M7201 4354 c0 -11 3 -14 6 -6 3 7 2 16 -1 19 -3 4 -6 -2 -5 -13z"/>
<path d="M3711 4324 c0 -11 3 -14 6 -6 3 7 2 16 -1 19 -3 4 -6 -2 -5 -13z"/>
<path d="M7108 4273 c-3 -4 -2 -19 2 -33 l6 -25 8 24 c8 22 -7 52 -16 34z"/>
<path d="M5485 4220 c-3 -5 -1 -10 4 -10 6 0 11 5 11 10 0 6 -2 10 -4 10 -3 0
-8 -4 -11 -10z"/>
<path d="M4708 4203 c7 -3 16 -2 19 1 4 3 -2 6 -13 5 -11 0 -14 -3 -6 -6z"/>
<path d="M5500 4179 c0 -5 5 -7 10 -4 6 3 10 8 10 11 0 2 -4 4 -10 4 -5 0 -10
-5 -10 -11z"/>
<path d="M7212 4165 c0 -16 2 -22 5 -12 2 9 2 23 0 30 -3 6 -5 -1 -5 -18z"/>
<path d="M3786 4154 c-10 -26 -7 -44 9 -61 9 -8 18 -14 20 -12 13 14 1 89 -15
89 -4 0 -11 -7 -14 -16z"/>
<path d="M5158 3767 c-3 -19 -2 -25 4 -19 6 6 8 18 6 28 -3 14 -5 12 -10 -9z"/>
<path d="M7080 3770 c0 -5 5 -10 10 -10 6 0 10 5 10 10 0 6 -4 10 -10 10 -5 0
-10 -4 -10 -10z"/>
<path d="M7090 3724 c0 -8 5 -12 10 -9 6 3 10 10 10 16 0 5 -4 9 -10 9 -5 0
-10 -7 -10 -16z"/>
<path d="M3747 3694 c-14 -14 -7 -35 11 -32 9 2 17 10 17 17 0 16 -18 25 -28
15z"/>
<path d="M3850 3662 c0 -34 7 -41 56 -52 28 -7 34 -5 34 9 0 18 -35 61 -50 61
-4 0 -15 3 -24 6 -12 5 -16 -1 -16 -24z"/>
<path d="M5626 3671 c-4 -7 -5 -15 -2 -18 9 -9 19 4 14 18 -4 11 -6 11 -12 0z"/>
<path d="M5211 3459 c-20 -8 -21 -12 -10 -25 9 -11 25 -14 53 -11 23 2 51 0
64 -4 40 -15 24 11 -20 31 -48 22 -54 23 -87 9z"/>
<path d="M7130 3424 c0 -8 5 -12 10 -9 6 4 8 11 5 16 -9 14 -15 11 -15 -7z"/>
<path d="M5141 3405 c3 -13 13 -20 27 -21 29 -2 48 -19 33 -28 -21 -13 -12
-27 10 -16 30 17 22 55 -13 56 -15 1 -35 7 -44 15 -14 12 -16 11 -13 -6z"/>
<path d="M4896 3381 c-4 -5 -2 -12 3 -15 5 -4 12 -2 15 3 4 5 2 12 -3 15 -5 4
-12 2 -15 -3z"/>
<path d="M7111 3374 c0 -11 3 -14 6 -6 3 7 2 16 -1 19 -3 4 -6 -2 -5 -13z"/>
<path d="M4797 3279 c-9 -5 -23 -7 -30 -3 -9 5 -9 4 0 -6 10 -11 8 -17 -9 -31
-11 -10 -24 -16 -29 -14 -4 3 -10 1 -14 -5 -3 -5 1 -10 9 -10 13 0 13 -5 -4
-32 -11 -18 -20 -37 -20 -43 1 -5 9 6 20 25 10 19 28 46 41 60 70 78 71 79 36
59z"/>
<path d="M5261 3228 c0 -18 3 -26 6 -18 3 8 10 18 16 21 5 4 6 12 3 18 -14 21
-26 11 -25 -21z"/>
<path d="M7112 3240 c0 -14 2 -19 5 -12 2 6 2 18 0 25 -3 6 -5 1 -5 -13z"/>
<path d="M5370 3225 c0 -9 6 -12 15 -9 8 4 15 10 15 15 0 5 -7 9 -15 9 -8 0
-15 -7 -15 -15z"/>
<path d="M5370 3185 c0 -8 5 -15 10 -15 6 0 10 7 10 15 0 8 -4 15 -10 15 -5 0
-10 -7 -10 -15z"/>
<path d="M5280 3164 c0 -8 5 -12 10 -9 6 3 10 10 10 16 0 5 -4 9 -10 9 -5 0
-10 -7 -10 -16z"/>
<path d="M5551 3136 c-8 -10 -9 -16 -1 -21 5 -3 10 -1 10 6 0 21 18 -3 23 -31
3 -14 4 -8 4 14 -2 42 -17 56 -36 32z"/>
<path d="M5600 3090 c0 -5 5 -10 11 -10 5 0 7 5 4 10 -3 6 -8 10 -11 10 -2 0
-4 -4 -4 -10z"/>
<path d="M4680 3059 c0 -5 5 -7 10 -4 6 3 10 8 10 11 0 2 -4 4 -10 4 -5 0 -10
-5 -10 -11z"/>
<path d="M5581 3041 c-8 -5 -9 -11 -3 -15 5 -3 12 1 16 9 6 17 6 18 -13 6z"/>
<path d="M5510 2961 c0 -6 4 -13 10 -16 6 -3 7 1 4 9 -7 18 -14 21 -14 7z"/>
<path d="M5546 2961 c-4 -7 -5 -15 -2 -18 9 -9 19 4 14 18 -4 11 -6 11 -12 0z"/>
<path d="M5160 2675 c7 -8 17 -15 22 -15 6 0 5 7 -2 15 -7 8 -17 15 -22 15 -6
0 -5 -7 2 -15z"/>
<path d="M6985 2510 c-3 -5 -1 -10 4 -10 6 0 11 5 11 10 0 6 -2 10 -4 10 -3 0
-8 -4 -11 -10z"/>
<path d="M5400 2460 c0 -5 5 -10 10 -10 6 0 10 5 10 10 0 6 -4 10 -10 10 -5 0
-10 -4 -10 -10z"/>
<path d="M5521 2384 c0 -11 3 -14 6 -6 3 7 2 16 -1 19 -3 4 -6 -2 -5 -13z"/>
<path d="M5440 2386 c0 -2 7 -6 15 -10 8 -3 15 -1 15 4 0 6 -7 10 -15 10 -8 0
-15 -2 -15 -4z"/>
<path d="M5465 2250 c3 -5 8 -10 11 -10 2 0 4 5 4 10 0 6 -5 10 -11 10 -5 0
-7 -4 -4 -10z"/>
<path d="M5500 2251 c0 -6 5 -13 10 -16 6 -3 10 1 10 9 0 9 -4 16 -10 16 -5 0
-10 -4 -10 -9z"/>
<path d="M5519 2163 c-1 -4 -1 -16 0 -25 1 -10 -4 -18 -13 -18 -9 0 -16 -7
-16 -15 0 -9 6 -12 15 -9 8 4 15 1 15 -6 0 -7 7 -10 15 -6 9 3 15 0 15 -9 0
-8 -5 -15 -11 -15 -5 0 -7 -4 -4 -10 3 -5 11 -10 17 -10 6 0 8 3 5 7 -4 3 -2
12 3 18 7 8 6 21 -4 39 -9 19 -16 23 -20 14 -3 -7 -4 -1 -2 15 2 15 -1 30 -5
33 -5 3 -10 2 -10 -3z"/>
<path d="M5608 2095 c-16 -13 -28 -26 -28 -28 0 -11 69 30 70 41 0 18 -12 14
-42 -13z"/>
<path d="M5495 2070 c3 -5 11 -10 16 -10 6 0 7 5 4 10 -3 6 -11 10 -16 10 -6
0 -7 -4 -4 -10z"/>
<path d="M5515 2020 c3 -5 8 -10 11 -10 2 0 4 5 4 10 0 6 -5 10 -11 10 -5 0
-7 -4 -4 -10z"/>
<path d="M5590 2021 c0 -6 4 -13 10 -16 6 -3 7 1 4 9 -7 18 -14 21 -14 7z"/>
<path d="M5538 2004 c-3 -5 1 -20 8 -34 12 -22 14 -22 14 -5 0 24 -16 51 -22
39z"/>
<path d="M5671 1984 c0 -11 3 -14 6 -6 3 7 2 16 -1 19 -3 4 -6 -2 -5 -13z"/>
<path d="M5475 1961 c-3 -5 -1 -12 5 -16 5 -3 10 1 10 9 0 18 -6 21 -15 7z"/>
<path d="M5595 1940 c3 -5 8 -10 11 -10 2 0 4 5 4 10 0 6 -5 10 -11 10 -5 0
-7 -4 -4 -10z"/>
<path d="M5627 1934 c-11 -11 3 -24 24 -24 18 0 19 2 5 15 -16 17 -20 18 -29
9z"/>
<path d="M5680 1917 c0 -8 -6 -17 -12 -20 -7 -2 -10 -8 -6 -12 4 -4 16 0 28 8
18 12 19 16 5 27 -12 10 -15 10 -15 -3z"/>
<path d="M5527 1860 c-3 -11 -1 -20 5 -20 6 0 7 -11 4 -26 -4 -15 -3 -23 3
-20 5 3 11 0 14 -6 3 -7 10 0 16 16 6 16 9 31 6 34 -3 3 -5 0 -5 -6 0 -7 -4
-12 -10 -12 -5 0 -10 11 -10 24 0 31 -16 42 -23 16z"/>
<path d="M5560 1864 c0 -8 5 -12 10 -9 6 4 8 11 5 16 -9 14 -15 11 -15 -7z"/>
<path d="M5683 1855 c0 -23 1 -24 13 -8 17 23 17 33 0 33 -8 0 -13 -10 -13
-25z"/>
<path d="M5485 1790 c3 -5 10 -10 16 -10 5 0 9 5 9 10 0 6 -7 10 -16 10 -8 0
-12 -4 -9 -10z"/>
<path d="M5465 1730 c-3 -5 -2 -10 4 -10 5 0 13 5 16 10 3 6 2 10 -4 10 -5 0
-13 -4 -16 -10z"/>
<path d="M5500 1720 c0 -5 5 -10 10 -10 6 0 10 5 10 10 0 6 -4 10 -10 10 -5 0
-10 -4 -10 -10z"/>
<path d="M5466 1695 c-3 -8 -1 -15 3 -15 5 0 11 7 15 15 3 8 1 15 -3 15 -5 0
-11 -7 -15 -15z"/>
<path d="M5338 1643 c7 -3 16 -2 19 1 4 3 -2 6 -13 5 -11 0 -14 -3 -6 -6z"/>
<path d="M4499 1480 c-51 -62 -86 -185 -92 -315 -3 -59 0 -110 6 -123 8 -16 8
-26 1 -30 -21 -14 -22 -48 -3 -61 11 -6 19 -18 19 -26 0 -9 9 -33 20 -55 24
-47 25 -60 5 -60 -23 0 -19 -41 5 -47 23 -6 27 -31 6 -39 -28 -11 -25 -34 9
-71 19 -21 35 -34 35 -29 0 5 6 3 14 -4 8 -6 12 -18 9 -27 -3 -8 0 -19 7 -23
8 -5 14 -24 14 -44 1 -23 6 -36 14 -36 7 0 11 -4 7 -10 -9 -15 23 -81 42 -86
10 -3 27 -25 37 -50 10 -25 25 -48 32 -51 8 -3 14 -12 14 -20 0 -14 23 -43 35
-43 3 0 18 -11 33 -25 15 -14 33 -25 40 -25 7 0 15 -7 18 -15 4 -8 12 -15 20
-15 8 0 14 -7 14 -16 0 -8 5 -12 10 -9 16 10 24 -23 10 -40 -10 -12 -9 -15 4
-15 10 0 14 5 11 10 -13 21 16 9 37 -15 12 -14 30 -25 40 -25 10 0 18 -4 18
-9 0 -17 42 -24 52 -10 8 11 9 10 4 -3 -5 -16 2 -18 59 -18 36 0 65 2 65 5 0
3 -19 14 -43 24 -66 28 -175 102 -243 164 -114 104 -294 370 -294 433 0 10 -6
25 -14 33 -17 20 -88 247 -111 361 -23 107 -24 247 -2 320 9 30 30 77 47 104
44 68 35 93 -11 36z m1 -770 c0 -5 -1 -11 -2 -12 -1 -2 4 -13 10 -25 7 -12 8
-24 3 -27 -9 -6 -31 36 -31 59 0 8 5 15 10 15 6 0 10 -4 10 -10z"/>
<path d="M5816 1473 c-11 -11 -6 -23 9 -23 8 0 15 4 15 9 0 13 -16 22 -24 14z"/>
<path d="M5946 1375 c4 -8 8 -15 10 -15 2 0 4 7 4 15 0 8 -4 15 -10 15 -5 0
-7 -7 -4 -15z"/>
<path d="M5915 1320 c3 -5 10 -10 16 -10 5 0 9 5 9 10 0 6 -7 10 -16 10 -8 0
-12 -4 -9 -10z"/>
<path d="M3902 1279 c2 -7 10 -15 17 -17 8 -3 12 1 9 9 -2 7 -10 15 -17 17 -8
3 -12 -1 -9 -9z"/>
<path d="M3830 1138 c0 -12 -7 -29 -15 -38 -13 -15 -12 -19 9 -39 l24 -23 7
32 c4 19 2 36 -5 45 -9 11 -9 15 -1 15 16 0 13 17 -4 24 -10 4 -15 -1 -15 -16z"/>
<path d="M3900 1020 c0 -5 9 -10 21 -10 11 0 17 5 14 10 -3 6 -13 10 -21 10
-8 0 -14 -4 -14 -10z"/>
<path d="M4020 995 c0 -25 69 -40 77 -17 3 7 -4 12 -16 12 -11 0 -23 5 -26 10
-10 16 -35 12 -35 -5z"/>
<path d="M3744 949 c-4 -6 -10 -26 -14 -44 -6 -28 -4 -34 12 -38 16 -5 18 -11
13 -39 -6 -32 -5 -33 36 -46 48 -15 56 -11 41 22 -9 20 -7 27 13 46 28 26 24
45 -6 30 -25 -14 -59 4 -59 30 0 41 -20 64 -36 39z m46 -89 c0 -5 -5 -10 -11
-10 -5 0 -7 5 -4 10 3 6 8 10 11 10 2 0 4 -4 4 -10z"/>
<path d="M3605 880 c3 -5 11 -10 16 -10 6 0 7 5 4 10 -3 6 -11 10 -16 10 -6 0
-7 -4 -4 -10z"/>
<path d="M3867 854 c-13 -13 -7 -24 14 -24 11 0 19 5 17 12 -5 14 -22 21 -31
12z"/>
<path d="M4106 852 c-3 -5 -1 -22 4 -38 8 -29 8 -29 9 9 1 36 -3 45 -13 29z"/>
<path d="M4420 830 c0 -5 5 -10 10 -10 6 0 10 5 10 10 0 6 -4 10 -10 10 -5 0
-10 -4 -10 -10z"/>
<path d="M4045 810 c3 -5 11 -10 16 -10 6 0 7 5 4 10 -3 6 -11 10 -16 10 -6 0
-7 -4 -4 -10z"/>
<path d="M2867 778 c-15 -5 -25 -13 -22 -18 3 -4 -4 -6 -14 -3 -13 3 -23 -2
-30 -16 -7 -12 -21 -21 -31 -21 -11 0 -20 -4 -20 -9 0 -5 -13 -11 -30 -14 -18
-4 -30 -13 -30 -22 0 -8 -6 -15 -13 -15 -17 0 -80 -74 -84 -100 -3 -21 -3 -21
18 -1 12 11 33 22 47 26 48 12 111 58 109 79 -2 16 4 20 29 21 31 0 74 28 74
48 0 6 7 19 17 29 21 23 15 28 -20 16z"/>
<path d="M4120 765 c0 -9 5 -15 11 -13 6 2 11 8 11 13 0 5 -5 11 -11 13 -6 2
-11 -4 -11 -13z"/>
<path d="M3410 740 c15 -11 26 -15 29 -8 4 12 -17 28 -39 28 -10 0 -7 -7 10
-20z"/>
<path d="M2984 739 c-3 -6 -1 -16 4 -21 13 -13 45 8 36 23 -7 12 -31 11 -40
-2z"/>
<path d="M3681 732 c-13 -24 9 -52 41 -52 40 0 44 36 5 55 -37 18 -34 19 -46
-3z"/>
<path d="M3996 734 c-10 -26 4 -37 24 -19 10 9 24 14 29 10 6 -3 11 -2 11 3 0
5 -10 12 -22 16 -33 8 -35 8 -42 -10z"/>
<path d="M3428 713 c-19 -5 -24 -28 -8 -38 5 -3 27 -8 49 -11 37 -4 39 -3 43
26 5 30 -14 43 -26 18 -5 -10 -7 -10 -12 0 -6 12 -15 13 -46 5z"/>
<path d="M3636 706 c3 -9 11 -16 16 -16 13 0 5 23 -10 28 -7 2 -10 -2 -6 -12z"/>
<path d="M6365 710 c3 -5 13 -10 21 -10 8 0 12 5 9 10 -3 6 -13 10 -21 10 -8
0 -12 -4 -9 -10z"/>
<path d="M3792 679 c2 -6 8 -10 13 -10 5 0 11 4 13 10 2 6 -4 11 -13 11 -9 0
-15 -5 -13 -11z"/>
<path d="M4012 654 c0 -32 2 -35 22 -30 11 3 37 6 56 7 l35 0 -35 17 c-19 9
-39 23 -43 29 -16 26 -35 14 -35 -23z"/>
<path d="M6427 683 c-4 -3 -7 -11 -7 -17 0 -6 5 -5 12 2 6 6 9 14 7 17 -3 3
-9 2 -12 -2z"/>
<path d="M4388 669 c-8 -19 -9 -29 -3 -26 10 5 32 -38 27 -55 -2 -10 2 -20 11
-24 9 -3 13 -12 10 -20 -7 -19 11 -18 27 1 10 12 8 16 -11 23 -13 5 -18 11
-11 16 6 3 13 2 17 -4 4 -6 11 -8 16 -4 13 7 -8 34 -27 34 -7 0 -22 16 -32 36
-12 24 -21 32 -24 23z"/>
<path d="M2957 653 c-7 -7 4 -36 17 -45 13 -8 26 -1 26 15 0 14 -35 39 -43 30z"/>
<path d="M6293 645 c-18 -20 -16 -55 3 -55 11 0 14 6 9 20 -4 11 -2 20 4 20 6
0 11 7 11 15 0 19 -11 19 -27 0z"/>
<path d="M3678 622 c17 -17 32 -38 32 -46 0 -9 5 -16 11 -16 6 0 17 -7 25 -15
17 -17 50 -20 59 -6 3 5 1 13 -5 16 -6 4 -8 15 -5 26 8 24 -13 25 -31 2 -13
-17 -15 -17 -29 1 -8 11 -15 28 -15 38 0 11 -7 18 -19 18 -11 0 -28 3 -38 6
-11 4 -5 -5 15 -24z"/>
<path d="M6126 641 c-4 -5 -2 -12 3 -15 5 -4 12 -2 15 3 4 5 2 12 -3 15 -5 4
-12 2 -15 -3z"/>
<path d="M3813 595 c-3 -9 -3 -18 0 -21 9 -9 27 6 27 22 0 19 -19 18 -27 -1z"/>
<path d="M4165 600 c-3 -5 -1 -10 4 -10 6 0 11 5 11 10 0 6 -2 10 -4 10 -3 0
-8 -4 -11 -10z"/>
<path d="M3957 582 c-25 -27 -21 -39 14 -46 47 -9 47 -9 35 29 -12 39 -25 44
-49 17z"/>
<path d="M6435 582 c3 -8 0 -21 -6 -29 -8 -9 -9 -17 -2 -24 7 -7 17 0 31 23
12 18 22 27 22 19 0 -8 2 -12 5 -9 12 12 -8 36 -31 36 -18 0 -24 -5 -19 -16z"/>
<path d="M3895 580 c3 -5 10 -10 16 -10 5 0 9 5 9 10 0 6 -7 10 -16 10 -8 0
-12 -4 -9 -10z"/>
<path d="M2964 561 c12 -11 21 -12 38 -4 21 9 20 10 -15 15 -33 3 -36 2 -23
-11z"/>
<path d="M3286 572 c-13 -21 11 -31 54 -23 25 5 37 9 28 10 -10 1 -18 6 -18
11 0 12 -57 14 -64 2z"/>
<path d="M4085 559 c4 -6 -1 -17 -11 -24 -11 -9 -14 -14 -6 -15 6 0 15 0 19 0
4 0 8 11 10 25 2 14 -1 25 -7 25 -6 0 -8 -5 -5 -11z"/>
<path d="M4485 560 c3 -5 12 -7 20 -3 21 7 19 13 -6 13 -11 0 -18 -4 -14 -10z"/>
<path d="M4450 503 c0 -12 -5 -25 -11 -29 -8 -5 -6 -10 5 -16 9 -5 16 -15 16
-23 0 -7 3 -15 8 -17 12 -5 52 -66 52 -79 0 -8 4 -8 15 1 13 11 12 16 -5 40
-11 16 -20 35 -20 43 0 8 -7 20 -15 27 -8 7 -13 15 -11 19 3 4 -4 18 -15 31
-18 25 -19 25 -19 3z"/>
<path d="M3321 491 c-13 -12 -30 -21 -38 -21 -28 0 -12 -28 20 -33 54 -8 68 8
48 56 -6 17 -8 17 -30 -2z"/>
<path d="M4120 504 c0 -3 6 -12 14 -19 12 -12 15 -12 19 -1 3 8 3 17 0 20 -8
8 -33 8 -33 0z"/>
<path d="M6445 500 c3 -5 8 -10 11 -10 2 0 4 5 4 10 0 6 -5 10 -11 10 -5 0 -7
-4 -4 -10z"/>
<path d="M3748 489 c-26 -14 -22 -29 7 -29 18 0 25 5 25 20 0 22 -7 24 -32 9z"/>
<path d="M3435 481 c-3 -5 0 -13 6 -17 7 -4 9 -3 5 4 -3 5 0 13 6 15 9 4 10 6
1 6 -6 1 -14 -3 -18 -8z"/>
<path d="M4180 481 c0 -11 39 -25 47 -18 3 3 2 10 -2 16 -8 13 -45 15 -45 2z"/>
<path d="M2786 471 c-3 -5 1 -11 9 -15 8 -3 15 -12 15 -20 0 -16 27 -29 34
-17 5 7 -36 61 -47 61 -3 0 -8 -4 -11 -9z"/>
<path d="M2710 449 c0 -5 5 -7 10 -4 6 3 10 8 10 11 0 2 -4 4 -10 4 -5 0 -10
-5 -10 -11z"/>
<path d="M3940 450 c0 -5 7 -10 15 -10 8 0 15 5 15 10 0 6 -7 10 -15 10 -8 0
-15 -4 -15 -10z"/>
<path d="M3500 421 c0 -10 7 -21 15 -25 16 -6 19 3 9 28 -8 22 -24 20 -24 -3z"/>
<path d="M4080 431 c0 -6 12 -11 28 -11 15 0 42 -13 60 -28 l33 -27 -58 1
c-32 0 -71 4 -86 8 -20 6 -33 4 -46 -8 -19 -17 -91 -22 -91 -6 0 6 -11 10 -24
10 -31 0 -40 14 -26 40 9 17 8 20 -10 20 -16 0 -20 -6 -20 -30 0 -19 5 -30 14
-30 8 0 16 -6 19 -13 7 -18 106 -38 128 -26 9 5 38 6 64 4 27 -3 53 0 60 5 9
7 21 7 39 0 27 -10 33 -24 16 -35 -6 -4 -8 -15 -5 -26 4 -11 2 -19 -4 -19 -6
0 -11 -6 -11 -14 0 -18 -64 -40 -92 -33 -13 4 -31 -2 -46 -14 -14 -10 -33 -19
-42 -19 -13 0 -17 -6 -13 -20 6 -24 23 -27 23 -4 0 12 6 15 21 11 13 -3 28 2
40 14 21 21 39 24 55 10 5 -4 21 -11 36 -15 21 -5 28 -2 33 15 5 15 12 19 28
15 12 -3 28 -6 35 -6 6 0 12 -9 12 -20 0 -16 7 -20 33 -20 40 0 51 -8 36 -26
-17 -20 8 -57 35 -52 12 3 27 -1 33 -8 9 -9 5 -13 -17 -16 -19 -3 -31 1 -35 9
-2 8 -9 12 -14 8 -19 -11 -61 7 -61 26 0 19 -29 27 -31 9 -5 -29 -2 -35 21
-40 19 -5 25 -13 25 -33 -1 -31 11 -34 44 -10 22 15 25 15 36 -1 9 -12 33 -18
86 -22 l73 -5 -40 44 c-57 64 -74 86 -86 113 -12 25 -28 32 -28 13 0 -8 -5 -8
-15 1 -11 9 -12 16 -5 25 8 9 4 14 -12 19 -22 7 -22 8 -4 15 29 11 7 19 -41
16 -37 -3 -43 -1 -43 17 0 18 4 19 40 13 37 -6 50 1 33 19 -5 4 -8 11 -8 14 0
4 -15 33 -33 65 l-33 57 -57 0 c-31 0 -67 3 -79 6 -14 4 -23 2 -23 -5z m177
-77 c-3 -3 -12 -4 -19 -1 -8 3 -5 6 6 6 11 1 17 -2 13 -5z m-22 -35 c10 -15
-1 -23 -20 -15 -9 3 -13 10 -10 16 8 13 22 13 30 -1z m-5 -69 c0 -5 -4 -10
-10 -10 -5 0 -10 5 -10 10 0 6 5 10 10 10 6 0 10 -4 10 -10z"/>
<path d="M2950 409 c0 -11 5 -17 10 -14 6 3 10 13 10 21 0 8 -4 14 -10 14 -5
0 -10 -9 -10 -21z"/>
<path d="M3125 419 c-4 -6 2 -17 14 -25 44 -31 14 -80 -34 -54 -23 12 -45 7
-45 -11 0 -5 12 -14 27 -20 15 -6 31 -16 35 -22 6 -9 8 -9 8 1 0 6 11 12 25
12 22 0 25 3 19 26 -6 24 -4 25 15 19 15 -4 29 -1 41 10 14 13 23 14 38 6 16
-9 21 -7 25 11 4 15 11 19 24 13 37 -14 81 -17 88 -5 12 19 -3 25 -63 26 -35
0 -62 -4 -70 -13 -16 -16 -62 -18 -62 -2 0 5 -4 7 -10 4 -5 -3 -10 0 -10 8 0
8 -10 17 -22 21 -32 8 -36 8 -43 -5z"/>
<path d="M4545 411 c-3 -5 -1 -12 5 -16 5 -3 10 1 10 9 0 18 -6 21 -15 7z"/>
<path d="M1974 377 c-8 -21 2 -35 16 -21 5 5 6 15 0 24 -8 12 -10 12 -16 -3z"/>
<path d="M3730 380 c0 -5 4 -10 9 -10 6 0 13 5 16 10 3 6 -1 10 -9 10 -9 0
-16 -4 -16 -10z"/>
<path d="M3573 363 c-17 -6 -16 -23 1 -23 7 0 19 -7 26 -15 14 -17 37 -4 26
14 -10 16 -39 29 -53 24z"/>
<path d="M4566 353 c-3 -3 0 -15 6 -27 7 -11 11 -25 10 -29 -2 -8 22 -37 30
-37 3 0 0 20 -6 45 -10 41 -26 61 -40 48z"/>
<path d="M2740 337 c0 -7 9 -13 20 -14 24 -2 27 12 4 21 -22 8 -24 8 -24 -7z"/>
<path d="M2660 331 c0 -11 48 -24 61 -16 5 4 7 11 4 16 -8 12 -65 12 -65 0z"/>
<path d="M2435 320 c3 -5 11 -10 16 -10 6 0 7 5 4 10 -3 6 -11 10 -16 10 -6 0
-7 -4 -4 -10z"/>
<path d="M3233 315 c-7 -20 0 -27 20 -19 9 3 13 12 10 20 -7 19 -22 18 -30 -1z"/>
<path d="M4481 314 c0 -11 3 -14 6 -6 3 7 2 16 -1 19 -3 4 -6 -2 -5 -13z"/>
<path d="M3824 305 c-18 -14 -18 -15 3 -21 29 -8 20 -24 -14 -24 -20 0 -23 -3
-14 -13 17 -21 3 -27 -47 -20 -53 7 -52 -11 1 -25 21 -6 32 -15 33 -28 1 -10
2 -23 3 -28 1 -5 8 -3 16 4 9 8 12 22 8 41 l-6 29 29 -15 c16 -8 29 -23 29
-32 0 -10 7 -18 15 -18 10 0 14 8 13 23 -3 24 8 28 38 12 21 -12 26 2 7 18
-18 14 -97 20 -102 7 -2 -5 -5 -2 -5 8 -1 16 4 18 64 21 11 1 23 -3 27 -8 3
-6 22 1 42 14 22 16 31 27 23 32 -13 8 -68 -1 -81 -13 -18 -16 -38 -10 -32 9
9 26 -26 45 -50 27z"/>
<path d="M4080 300 c-19 -15 -21 -20 -8 -20 9 0 18 -6 21 -12 3 -10 10 -8 23
5 16 15 16 19 4 32 -13 12 -18 12 -40 -5z"/>
<path d="M3295 300 c3 -5 10 -10 16 -10 5 0 9 5 9 10 0 6 -7 10 -16 10 -8 0
-12 -4 -9 -10z"/>
<path d="M3022 270 c14 -22 3 -39 -14 -22 -14 14 -38 16 -38 2 0 -5 19 -14 41
-20 27 -7 43 -18 46 -31 5 -18 6 -19 19 -2 19 26 17 40 -7 46 -11 3 -23 15
-26 26 -3 12 -12 21 -19 21 -12 0 -12 -4 -2 -20z"/>
<path d="M3180 283 c-13 -3 -34 -13 -46 -22 -17 -13 -19 -19 -8 -29 17 -16 41
-15 46 0 3 9 9 8 22 -5 19 -19 46 -23 46 -7 0 6 -5 10 -11 10 -7 0 -10 12 -7
30 3 18 0 29 -6 29 -6 -1 -22 -4 -36 -6z"/>
<path d="M3368 283 c7 -3 16 -2 19 1 4 3 -2 6 -13 5 -11 0 -14 -3 -6 -6z"/>
<path d="M3500 280 c0 -5 9 -10 21 -10 11 0 17 5 14 10 -3 6 -13 10 -21 10 -8
0 -14 -4 -14 -10z"/>
<path d="M3242 271 c4 -13 18 -16 19 -4 0 4 -5 9 -11 12 -7 2 -11 -2 -8 -8z"/>
<path d="M4011 266 c-8 -10 -9 -16 -1 -21 5 -3 10 0 10 9 0 8 6 17 13 19 7 4
8 6 1 6 -6 1 -17 -5 -23 -13z"/>
<path d="M4660 271 c0 -5 5 -13 10 -16 6 -3 10 -2 10 4 0 5 -4 13 -10 16 -5 3
-10 2 -10 -4z"/>
<path d="M3425 260 c3 -5 10 -10 16 -10 5 0 9 5 9 10 0 6 -7 10 -16 10 -8 0
-12 -4 -9 -10z"/>
<path d="M4510 261 c0 -5 5 -13 10 -16 6 -3 10 -2 10 4 0 5 -4 13 -10 16 -5 3
-10 2 -10 -4z"/>
<path d="M4626 223 c4 -16 20 -40 35 -54 16 -14 29 -33 29 -42 0 -10 8 -17 18
-17 20 0 105 -78 97 -90 -6 -10 65 -21 82 -12 9 6 3 12 -22 21 -23 8 -35 19
-35 31 0 25 -20 36 -32 19 -7 -12 -8 -11 -7 1 3 23 -18 67 -35 73 -9 4 -16 2
-16 -3 0 -16 -17 -12 -24 6 -3 8 -2 13 2 10 4 -2 9 5 9 17 2 17 0 19 -8 7 -8
-12 -15 -8 -42 23 -39 45 -60 49 -51 10z"/>
<path d="M3630 231 c0 -5 11 -11 24 -13 17 -4 23 -1 19 9 -6 14 -43 18 -43 4z"/>
<path d="M3382 210 c7 -11 21 -23 30 -26 10 -3 18 -10 18 -15 0 -6 5 -7 11 -3
6 3 15 1 19 -6 8 -13 40 -7 40 7 0 4 -7 17 -16 28 -12 16 -18 18 -34 7 -20
-12 -37 -1 -25 18 4 6 -7 10 -24 10 -29 0 -30 -2 -19 -20z"/>
<path d="M2800 211 c0 -7 -9 -22 -21 -34 l-20 -22 21 -3 c41 -7 65 33 35 58
-11 9 -15 9 -15 1z"/>
<path d="M4540 211 c0 -5 5 -13 10 -16 6 -3 10 -2 10 4 0 5 -4 13 -10 16 -5 3
-10 2 -10 -4z"/>
<path d="M4197 183 c-13 -12 -7 -23 13 -23 11 0 20 7 20 15 0 15 -21 21 -33 8z"/>
<path d="M4580 183 c0 -11 41 -36 48 -29 3 3 0 6 -6 6 -7 0 -11 5 -9 12 1 6
-6 14 -15 16 -10 2 -18 0 -18 -5z"/>
<path d="M2492 167 c-8 -9 -4 -12 14 -12 27 0 32 10 10 18 -8 3 -19 0 -24 -6z"/>
<path d="M2305 161 c-7 -12 12 -24 25 -16 11 7 4 25 -10 25 -5 0 -11 -4 -15
-9z"/>
<path d="M3302 163 c-13 -3 -27 -15 -32 -29 -9 -24 -11 -24 -35 -8 -14 9 -25
13 -25 9 0 -5 -9 0 -19 9 -11 10 -20 13 -22 7 -3 -7 -33 -12 -72 -12 -37 -1
-69 -5 -72 -9 -2 -4 23 -11 58 -15 61 -7 61 -8 33 -20 -28 -12 -29 -13 -9 -23
26 -14 93 -4 87 13 -6 15 51 26 65 12 10 -10 34 0 26 12 -2 5 1 16 8 25 10 14
18 15 41 6 16 -6 32 -8 35 -4 6 6 -28 35 -38 33 -3 -1 -16 -4 -29 -6z"/>
<path d="M2550 145 c-8 -9 -8 -15 -2 -15 12 0 26 19 19 26 -2 2 -10 -2 -17
-11z"/>
<path d="M2665 151 c-6 -11 9 -23 19 -14 9 9 7 23 -3 23 -6 0 -12 -4 -16 -9z"/>
<path d="M4012 138 c-20 -20 -14 -28 23 -28 37 0 50 -25 18 -33 -10 -3 -1 -5
19 -6 20 0 40 4 44 10 4 7 22 9 45 6 l38 -5 -17 24 c-22 30 -67 33 -75 4 -8
-30 -24 -24 -30 10 -5 23 -12 30 -30 30 -13 0 -28 -5 -35 -12z"/>
<path d="M4637 143 c-4 -3 -7 -11 -7 -17 0 -6 5 -5 12 2 6 6 9 14 7 17 -3 3
-9 2 -12 -2z"/>
<path d="M2715 130 c3 -5 16 -10 28 -10 18 0 19 2 7 10 -20 13 -43 13 -35 0z"/>
<path d="M2960 130 c0 -5 7 -10 15 -10 8 0 15 5 15 10 0 6 -7 10 -15 10 -8 0
-15 -4 -15 -10z"/>
<path d="M4547 123 c-9 -14 9 -63 23 -63 5 0 10 5 10 10 0 6 -4 10 -9 10 -5 0
-11 12 -13 28 -2 16 -6 22 -11 15z"/>
<path d="M2405 110 c-3 -5 1 -10 9 -10 9 0 16 5 16 10 0 6 -4 10 -9 10 -6 0
-13 -4 -16 -10z"/>
<path d="M2530 105 c0 -8 5 -15 10 -15 6 0 10 7 10 15 0 8 -4 15 -10 15 -5 0
-10 -7 -10 -15z"/>
<path d="M3780 110 c-9 -6 -10 -10 -3 -10 6 0 15 5 18 10 8 12 4 12 -15 0z"/>
<path d="M2820 90 c-14 -11 -20 -20 -14 -20 21 0 74 22 74 31 0 16 -34 9 -60
-11z"/>
<path d="M5720 96 c0 -9 5 -16 10 -16 6 0 10 4 10 9 0 6 -4 13 -10 16 -5 3
-10 -1 -10 -9z"/>
<path d="M3396 84 c-10 -26 -7 -34 14 -34 23 0 27 22 6 39 -11 9 -15 8 -20 -5z"/>
<path d="M4605 81 c-3 -5 -1 -12 4 -15 5 -3 11 1 15 9 6 16 -9 21 -19 6z"/>
<path d="M4644 65 c-1 -15 3 -25 12 -25 8 0 14 -4 14 -8 0 -13 42 -28 68 -24
21 3 32 32 12 32 -5 0 -10 -4 -10 -10 0 -5 -8 -10 -17 -10 -13 0 -14 3 -5 12
19 19 14 29 -12 22 -18 -4 -25 -1 -29 15 -7 29 -32 26 -33 -4z"/>
<path d="M5638 76 c-27 -7 -38 -15 -38 -28 0 -10 -7 -18 -16 -18 -8 0 -13 -4
-10 -9 5 -7 93 -8 125 -2 2 1 -2 8 -9 16 -6 8 -9 18 -7 23 12 19 -9 27 -45 18z"/>
<path d="M5839 73 c-13 -17 -13 -17 6 -3 11 8 22 16 24 17 2 2 0 3 -6 3 -6 0
-17 -8 -24 -17z"/>
<path d="M5910 81 c0 -6 4 -12 8 -15 5 -3 9 1 9 9 0 8 -4 15 -9 15 -4 0 -8 -4
-8 -9z"/>
<path d="M3460 65 c0 -8 7 -15 16 -15 14 0 14 -3 4 -15 -15 -19 -7 -30 16 -21
9 3 14 13 10 21 -7 19 3 24 34 14 l25 -7 -22 -7 c-26 -8 -30 -20 -8 -29 17 -6
65 9 65 22 0 16 -25 32 -51 32 -15 0 -31 5 -34 10 -10 16 -55 12 -55 -5z"/>
<path d="M2597 54 c-12 -12 4 -24 34 -24 16 0 29 -4 29 -10 0 -5 7 -10 15 -10
8 0 15 5 15 10 0 6 -6 10 -14 10 -8 0 -16 7 -20 15 -5 15 -47 21 -59 9z"/>
<path d="M2790 50 c0 -14 29 -32 40 -25 6 3 8 10 5 14 -7 12 -45 21 -45 11z"/>
<path d="M3685 50 c3 -5 14 -10 23 -10 15 0 15 2 2 10 -20 13 -33 13 -25 0z"/>
<path d="M4100 40 c0 -23 10 -26 28 -8 9 9 12 9 12 -1 0 -8 7 -10 20 -6 11 4
20 2 20 -4 0 -6 7 -11 15 -11 8 0 15 7 15 16 0 11 6 15 19 11 12 -3 18 0 15 7
-3 6 -34 12 -74 14 -65 3 -70 1 -70 -18z"/>
<path d="M3640 30 c0 -11 6 -20 14 -20 9 0 12 7 9 20 -7 26 -23 26 -23 0z"/>
<path d="M4010 40 c-12 -7 -12 -12 -3 -21 9 -9 16 -9 27 1 26 21 5 39 -24 20z"/>
<path d="M2940 30 c0 -5 5 -10 10 -10 6 0 10 5 10 10 0 6 -4 10 -10 10 -5 0
-10 -4 -10 -10z"/>
<path d="M3221 31 c-12 -8 -9 -11 12 -17 30 -7 43 -1 32 15 -8 13 -25 14 -44
2z"/>
<path d="M3805 30 c-4 -6 7 -10 25 -10 18 0 29 4 25 10 -3 6 -15 10 -25 10
-10 0 -22 -4 -25 -10z"/>
<path d="M4515 30 c3 -5 10 -10 16 -10 5 0 9 5 9 10 0 6 -7 10 -16 10 -8 0
-12 -4 -9 -10z"/>
<path d="M4585 30 c3 -5 10 -10 16 -10 5 0 9 5 9 10 0 6 -7 10 -16 10 -8 0
-12 -4 -9 -10z"/>
<path d="M5741 31 c-8 -5 -9 -11 -3 -15 14 -8 43 4 36 15 -7 11 -15 11 -33 0z"/>
</g>
</svg>
